<?xml version="1.0" encoding="utf-8"?>
<!-- Generator: Adobe Illustrator 26.0.3, SVG Export Plug-In . SVG Version: 6.00 Build 0)  -->
<svg version="1.1" xmlns="http://www.w3.org/2000/svg" xmlns:xlink="http://www.w3.org/1999/xlink" x="0px" y="0px"
	 viewBox="0 0 1532 1006.5" style="enable-background:new 0 0 1532 1006.5;" xml:space="preserve">
<style type="text/css">
	.st0{fill:#E57E56;}
	.st1{fill:#FAEFD1;}
	.st2{fill:#E3C8A1;}
	.st3{fill:#F0895B;}
	.st4{opacity:0.2;fill:#8A8877;}
	.st5{fill:#F4F3F1;}
	.st6{fill:#EDE9E4;}
	.st7{fill:#7A7471;}
	.st8{fill:#9E005D;}
	.st9{fill:#0071BC;}
	.st10{fill:#006837;}
	.st11{fill:url(#SVGID_1_);}
	.st12{fill:url(#SVGID_00000176730111816862157980000011288570060562153144_);}
	.st13{fill:url(#SVGID_00000061463387800989259340000013218645223703453609_);}
	.st14{fill:url(#SVGID_00000101097973578568698910000008372612128439995301_);}
	.st15{fill:url(#SVGID_00000063593874729502417370000010042801363314087042_);}
	.st16{fill:#FFFFFF;stroke:#000000;stroke-width:0.25;stroke-miterlimit:10;}
	.st17{fill:#C50000;}
	.st18{fill:none;stroke:#C50000;stroke-miterlimit:10;}
	.st19{fill:url(#SVGID_00000008117541601654696080000014093054927044005794_);}
	.st20{fill:url(#SVGID_00000067934651320771131180000017260549777773289144_);}
	.st21{fill:url(#SVGID_00000106131910002710416000000006951562731490364292_);}
	.st22{fill:#CCCCCC;stroke:#000000;stroke-width:0.25;stroke-miterlimit:10;}
	.st23{fill:#F2F2F2;stroke:#000000;stroke-width:0.25;stroke-miterlimit:10;}
	.st24{fill:#B3B3B3;stroke:#000000;stroke-width:0.25;stroke-miterlimit:10;}
</style>
<g id="Camada_6">
</g>
<g id="back">
	<g id="book">
		<path class="st0" d="M677.7,692.8c1.3,4.3-0.4,8.8-3.9,9.8l-92.4,28.6c-3.5,1.1-7-0.1-8.4-4.5l-42.7-138.1
			c-1.3-4.3,0.6-5.7,4.1-6.8l93.1-28.8c3.5-1.1,6.8-0.6,8.1,3.7L677.7,692.8z"/>
		<path class="st1" d="M678.5,684.6c1.3,4.1-0.5,8.3-4.1,9.4l-88.7,29.1c-4.2,2.2-6.5,3.9-9,5L533,586.5c1.3-1.6,3.4-3.7,6-6
			l91.6-28.3c3.5-1.1,6.8-0.7,8,3.4L678.5,684.6z"/>
		<path class="st2" d="M576.7,728.1l97.7-30.2c0,0,2.1-1.3,2.5-6.1c0.4-3.9-71.3,20.2-91.6,31.4
			C581.8,725.1,576.7,728.1,576.7,728.1z"/>
		<path class="st3" d="M681.9,686.4c1.3,4.3-0.7,8-4.2,9.1l-92.4,28.6c-3.5,1.1-7-0.1-8.4-4.4l-42.1-136.1c-1.3-4.3,1.1-6.5,4.6-7.6
			l92.4-28.6c3.5-1.1,6.8-0.6,8.1,3.7L681.9,686.4z"/>
		<path class="st4" d="M550.9,593.8c-0.7-3.6-0.2-7.2,3.1-9.6c4.8-3.4,10.9-5.9,16.3-8.3c5.4-2.5,14.1-5.6,17.5-8.3
			c-1.3-1.4-6.9,0.9-9.2,1.6c-3,0.9-6,1.9-9,2.8c-6.3,1.9-12.6,3.9-18.9,5.8c-1.5,0.4-2.9,0.9-4.4,1.3c-3.2,1-5.5,3.1-4.3,7
			l16.2,52.5c-0.7-11.7-2.7-20.7-4.6-30.2C552.8,603.7,551.9,598.6,550.9,593.8z"/>
		<path class="st5" d="M657.7,619.5c0.9,5.2,2.4,10.3,3.6,15.5c2.3,9.9,4.3,20,5.7,30.1c0.9,6.7,1.1,13.6-2.7,19.6
			c-6.5,10.1-21.1,11.6-31.4,15.5c-18.5,7-37.2,13.1-56.4,18.1l0.4,1.4c1.3,4.3,4.8,5.5,8.4,4.4l92.4-28.6c3.5-1.1,5.5-4.8,4.2-9.1
			l-25.3-81.9C656.8,609.5,656.9,614.6,657.7,619.5z"/>
		<path class="st6" d="M636.1,587.8c0.9,3-0.5,5.6-2.9,6.4l-64.9,20.1c-2.5,0.8-4.9-0.1-5.9-3.1l-5.3-17c-0.9-3,0.8-4.6,3.3-5.4
			l64.9-20.1c2.5-0.8,4.8-0.4,5.7,2.6L636.1,587.8z"/>
		<path class="st5" d="M626.7,570.4c0.6,1.7,1,3.5,1,5.3c0,4-1.5,7.4-3.6,10.9c-2.4,4-5,7-9.2,9.4c-2.6,1.5-5.1,2.8-7.7,3.9
			l23.2-7.2c2.3-0.7,3.6-3,2.8-5.6l-4.5-14.4C628.3,571.5,627.6,570.7,626.7,570.4z"/>
		<g>
			<g>
				<path class="st7" d="M543.2,597.9c-0.5,1.7-2.4,3.2-5,4.2c-0.1,0-0.2,0.1-0.3,0.1c-1,0.3-2.2,0.5-3.2,0.4
					c-1.5-0.1-2.8-0.5-3.3-1.5c-0.5-0.8-0.5-2.1,1.6-4l0.5,1.5c-0.7,0.7-1,1.4-0.8,1.7c0.2,0.4,0.8,0.6,1.6,0.7c1,0.1,2.3,0,3.5-0.4
					c2.2-0.8,3.8-2,4.1-3.2c0.2-0.7,0.1-1.5-0.5-2.3c-0.2-0.3-0.2-0.8,0.2-1c0.3-0.2,0.8-0.2,1,0.2
					C543.5,595.8,543.5,597.1,543.2,597.9z"/>
			</g>
			<g>
				<path class="st7" d="M548.1,613.6c-0.5,1.7-2.4,3.2-5,4.2c-0.1,0-0.2,0.1-0.3,0.1c-1,0.3-2.2,0.5-3.2,0.4
					c-1.5-0.1-2.8-0.5-3.3-1.5c-0.5-0.8-0.5-2.1,1.6-4l0.5,1.5c-0.7,0.7-1,1.4-0.8,1.7c0.2,0.4,0.8,0.6,1.6,0.7c1,0.1,2.3,0,3.5-0.4
					c2.2-0.8,3.8-2,4.1-3.2c0.2-0.7,0.1-1.5-0.5-2.3c-0.2-0.3-0.2-0.8,0.2-1c0.3-0.2,0.8-0.2,1,0.2
					C548.4,611.5,548.3,612.8,548.1,613.6z"/>
			</g>
			<g>
				<path class="st7" d="M552.9,629.3c-0.5,1.7-2.4,3.2-5,4.2c-0.1,0-0.2,0.1-0.3,0.1c-1,0.3-2.2,0.5-3.2,0.4
					c-1.5-0.1-2.8-0.5-3.3-1.5c-0.5-0.8-0.5-2.1,1.6-4l0.5,1.5c-0.7,0.7-1,1.4-0.8,1.7c0.2,0.4,0.8,0.6,1.6,0.7c1,0.1,2.3,0,3.5-0.4
					c2.2-0.8,3.8-2,4.1-3.2c0.2-0.7,0.1-1.5-0.5-2.3c-0.2-0.3-0.2-0.8,0.2-1c0.3-0.2,0.8-0.2,1,0.2
					C553.3,627.2,553.2,628.5,552.9,629.3z"/>
			</g>
			<g>
				<path class="st7" d="M557.8,645c-0.5,1.7-2.4,3.2-5,4.2c-0.1,0-0.2,0.1-0.3,0.1c-1,0.3-2.2,0.5-3.2,0.4
					c-1.5-0.1-2.8-0.5-3.3-1.5c-0.5-0.8-0.5-2.1,1.6-4l0.5,1.5c-0.7,0.7-1,1.4-0.8,1.7c0.2,0.4,0.8,0.6,1.6,0.7c1,0.1,2.3,0,3.5-0.4
					c2.2-0.8,3.8-2,4.1-3.2c0.2-0.7,0.1-1.5-0.5-2.3c-0.2-0.3-0.2-0.8,0.2-1c0.3-0.2,0.8-0.2,1,0.2C558.1,642.9,558,644.2,557.8,645
					z"/>
			</g>
			<g>
				<path class="st7" d="M562.6,660.8c-0.5,1.7-2.4,3.2-5,4.2c-0.1,0-0.2,0.1-0.3,0.1c-1,0.3-2.2,0.5-3.2,0.4
					c-1.5-0.1-2.8-0.5-3.3-1.5c-0.5-0.8-0.5-2.1,1.6-4l0.5,1.5c-0.7,0.7-1,1.4-0.8,1.7c0.2,0.3,0.8,0.6,1.6,0.7c1,0.1,2.3,0,3.5-0.4
					c2.2-0.8,3.8-2,4.1-3.2c0.2-0.7,0.1-1.5-0.5-2.3c-0.2-0.3-0.2-0.8,0.2-1c0.3-0.2,0.8-0.2,1,0.2
					C563,658.6,562.9,659.9,562.6,660.8z"/>
			</g>
			<g>
				<path class="st7" d="M567.5,676.5c-0.5,1.7-2.4,3.2-5,4.2c-0.1,0-0.2,0.1-0.3,0.1c-1,0.3-2.2,0.5-3.2,0.4
					c-1.5-0.1-2.8-0.5-3.3-1.5c-0.5-0.8-0.5-2.1,1.6-4l0.5,1.5c-0.7,0.7-1,1.4-0.8,1.7c0.2,0.4,0.8,0.6,1.6,0.7c1,0.1,2.3,0,3.5-0.4
					c2.2-0.8,3.8-2,4.1-3.2c0.2-0.7,0.1-1.5-0.5-2.3c-0.2-0.3-0.2-0.8,0.2-1c0.3-0.2,0.8-0.2,1,0.2
					C567.8,674.3,567.8,675.6,567.5,676.5z"/>
			</g>
			<g>
				<path class="st7" d="M572.4,692.2c-0.5,1.7-2.4,3.2-5,4.2c-0.1,0-0.2,0.1-0.3,0.1c-1,0.3-2.2,0.5-3.2,0.4
					c-1.5-0.1-2.8-0.5-3.3-1.5c-0.5-0.8-0.5-2.1,1.6-4l0.5,1.5c-0.7,0.7-1,1.4-0.8,1.7c0.2,0.4,0.8,0.6,1.6,0.7c1,0.1,2.3,0,3.5-0.4
					c2.2-0.8,3.8-2,4.1-3.2c0.2-0.7,0.1-1.5-0.5-2.3c-0.2-0.3-0.2-0.8,0.2-1c0.3-0.2,0.8-0.2,1,0.2
					C572.7,690.1,572.6,691.3,572.4,692.2z"/>
			</g>
			<g>
				<path class="st7" d="M577.2,707.9c-0.5,1.7-2.4,3.2-5,4.2c-0.1,0-0.2,0.1-0.3,0.1c-1,0.3-2.2,0.5-3.2,0.4
					c-1.5-0.1-2.8-0.5-3.3-1.5c-0.5-0.8-0.5-2.1,1.6-4l0.5,1.5c-0.7,0.7-1,1.4-0.8,1.7c0.2,0.4,0.8,0.6,1.6,0.7c1,0.1,2.3,0,3.5-0.4
					c2.2-0.8,3.8-2,4.1-3.2c0.2-0.7,0.1-1.5-0.5-2.3c-0.2-0.3-0.2-0.8,0.2-1c0.3-0.2,0.8-0.2,1,0.2
					C577.5,705.8,577.5,707.1,577.2,707.9z"/>
			</g>
		</g>
	</g>
	<g id="book_2">
		<path class="st8" d="M790.6,698.6c-1.4,4.3,0.3,8.8,3.9,9.9l92.1,29.4c3.5,1.1,7,0,8.4-4.4l44-137.7c1.4-4.3-0.6-5.7-4.1-6.8
			l-92.8-29.7c-3.5-1.1-6.8-0.7-8.2,3.7L790.6,698.6z"/>
		<path class="st1" d="M789.9,690.4c-1.3,4.1,0.5,8.4,4,9.5l88.4,29.9c4.2,2.2,6.5,3.9,9,5.1l45.1-141.1c-1.3-1.6-3.3-3.7-5.9-6.1
			l-91.4-29.2c-3.5-1.1-6.8-0.7-8.1,3.4L789.9,690.4z"/>
		<path class="st2" d="M891.2,734.8l-97.5-31.1c0,0-2.1-1.4-2.5-6.1c-0.3-3.9,71.1,20.8,91.3,32.3
			C886.1,731.9,891.2,734.8,891.2,734.8z"/>
		<path class="st8" d="M786.5,692.2c-1.4,4.3,0.6,8,4.1,9.1l92.1,29.4c3.5,1.1,7-0.1,8.4-4.3l43.4-135.6c1.4-4.3-1-6.5-4.6-7.7
			l-92.1-29.4c-3.5-1.1-6.8-0.7-8.2,3.6L786.5,692.2z"/>
		<path class="st4" d="M918.3,600.9c0.8-3.6,0.3-7.2-3-9.6c-4.7-3.5-10.9-6-16.2-8.4c-5.4-2.5-14-5.7-17.4-8.5
			c1.3-1.4,6.9,1,9.1,1.7c3,0.9,6,2,9,2.9c6.3,1.9,12.6,4.1,18.9,6c1.5,0.4,2.9,0.9,4.4,1.3c3.2,1,5.5,3.1,4.2,7.1l-16.7,52.3
			c0.8-11.7,2.9-20.7,4.9-30.2C916.4,610.7,917.3,605.7,918.3,600.9z"/>
		<path class="st5" d="M811.3,625.5c-0.9,5.2-2.5,10.3-3.7,15.4c-2.4,9.9-4.5,20-6,30c-1,6.7-1.3,13.6,2.5,19.6
			c6.4,10.2,21,11.9,31.3,15.8c18.5,7.1,37.1,13.5,56.2,18.6l-0.4,1.4c-1.4,4.3-4.9,5.5-8.4,4.3l-92.1-29.4
			c-3.5-1.1-5.5-4.8-4.1-9.1l26.1-81.6C812.3,615.6,812.1,620.6,811.3,625.5z"/>
		<path class="st6" d="M833.2,594c-1,3,0.4,5.6,2.9,6.4l64.7,20.7c2.5,0.8,4.9,0,5.9-3.1l5.4-17c1-3-0.7-4.6-3.2-5.4L844.2,575
			c-2.5-0.8-4.8-0.5-5.7,2.5L833.2,594z"/>
		<path class="st5" d="M842.8,576.7c-0.6,1.7-1,3.5-1.1,5.3c-0.1,4,1.4,7.4,3.5,10.9c2.3,4,5,7,9.1,9.5c2.5,1.5,5,2.9,7.7,4
			l-23.1-7.4c-2.3-0.7-3.5-3-2.7-5.6l4.6-14.4C841.1,577.7,841.9,577,842.8,576.7z"/>
		<g>
			<g>
				<path class="st7" d="M926,605c0.5,1.7,2.3,3.2,5,4.2c0.1,0,0.2,0.1,0.3,0.1c1,0.3,2.2,0.5,3.2,0.4c1.5,0,2.8-0.5,3.3-1.4
					c0.5-0.8,0.6-2.1-1.6-4l-0.5,1.5c0.7,0.7,1,1.4,0.8,1.7c-0.2,0.3-0.8,0.6-1.6,0.7c-1,0.1-2.3,0-3.5-0.4c-2.2-0.8-3.7-2-4.1-3.3
					c-0.2-0.7,0-1.5,0.6-2.3c0.2-0.3,0.2-0.8-0.1-1c-0.3-0.2-0.8-0.2-1,0.2C925.7,602.9,925.7,604.2,926,605z"/>
			</g>
			<g>
				<path class="st7" d="M921,620.7c0.5,1.7,2.3,3.2,5,4.2c0.1,0,0.2,0.1,0.3,0.1c1,0.3,2.2,0.5,3.2,0.4c1.5,0,2.8-0.5,3.3-1.4
					c0.5-0.8,0.6-2.1-1.6-4l-0.5,1.5c0.7,0.7,1,1.4,0.8,1.7c-0.2,0.3-0.8,0.6-1.6,0.7c-1,0.1-2.3,0-3.5-0.4c-2.2-0.8-3.7-2-4.1-3.3
					c-0.2-0.7,0-1.5,0.6-2.3c0.2-0.3,0.2-0.8-0.1-1c-0.3-0.2-0.8-0.2-1,0.2C920.7,618.6,920.7,619.9,921,620.7z"/>
			</g>
			<g>
				<path class="st7" d="M915.9,636.3c0.5,1.7,2.3,3.2,5,4.2c0.1,0,0.2,0.1,0.3,0.1c1,0.3,2.2,0.5,3.2,0.4c1.5,0,2.8-0.5,3.3-1.4
					c0.5-0.8,0.6-2.1-1.6-4l-0.5,1.5c0.7,0.7,1,1.4,0.8,1.7c-0.2,0.3-0.8,0.6-1.6,0.7c-1,0.1-2.3,0-3.5-0.4c-2.2-0.8-3.7-2-4.1-3.3
					c-0.2-0.7,0-1.5,0.6-2.3c0.2-0.3,0.2-0.8-0.1-1c-0.3-0.2-0.8-0.2-1,0.2C915.6,634.2,915.7,635.5,915.9,636.3z"/>
			</g>
			<g>
				<path class="st7" d="M910.9,652c0.5,1.7,2.3,3.2,5,4.2c0.1,0,0.2,0.1,0.3,0.1c1,0.3,2.2,0.5,3.2,0.4c1.5,0,2.8-0.5,3.3-1.4
					c0.5-0.8,0.6-2.1-1.6-4l-0.5,1.5c0.7,0.7,1,1.4,0.8,1.7c-0.2,0.3-0.8,0.6-1.6,0.7c-1,0.1-2.3,0-3.5-0.4c-2.2-0.8-3.7-2-4.1-3.3
					c-0.2-0.7,0-1.5,0.6-2.3c0.2-0.3,0.2-0.8-0.1-1c-0.3-0.2-0.8-0.2-1,0.2C910.6,649.9,910.7,651.2,910.9,652z"/>
			</g>
			<g>
				<path class="st7" d="M905.9,667.7c0.5,1.7,2.3,3.2,5,4.2c0.1,0,0.2,0.1,0.3,0.1c1,0.3,2.2,0.5,3.2,0.4c1.5,0,2.8-0.5,3.3-1.4
					c0.5-0.8,0.6-2.1-1.6-4l-0.5,1.5c0.7,0.7,1,1.4,0.8,1.7c-0.2,0.3-0.8,0.6-1.6,0.7c-1,0.1-2.3,0-3.5-0.4c-2.2-0.8-3.7-2-4.1-3.3
					c-0.2-0.7,0-1.5,0.6-2.3c0.2-0.3,0.2-0.8-0.1-1c-0.3-0.2-0.8-0.2-1,0.2C905.6,665.6,905.7,666.8,905.9,667.7z"/>
			</g>
			<g>
				<path class="st7" d="M900.9,683.3c0.5,1.7,2.3,3.2,5,4.2c0.1,0,0.2,0.1,0.3,0.1c1,0.3,2.2,0.5,3.2,0.4c1.5,0,2.8-0.5,3.3-1.4
					c0.5-0.8,0.6-2.1-1.6-4l-0.5,1.5c0.7,0.7,1,1.4,0.8,1.7c-0.2,0.3-0.8,0.6-1.6,0.7c-1,0.1-2.3,0-3.5-0.4c-2.2-0.8-3.7-2-4.1-3.3
					c-0.2-0.7,0-1.5,0.6-2.3c0.2-0.3,0.2-0.8-0.1-1c-0.3-0.2-0.8-0.2-1,0.2C900.6,681.2,900.7,682.5,900.9,683.3z"/>
			</g>
			<g>
				<path class="st7" d="M895.9,699c0.5,1.7,2.3,3.2,5,4.2c0.1,0,0.2,0.1,0.3,0.1c1,0.3,2.2,0.5,3.2,0.4c1.5,0,2.8-0.5,3.3-1.4
					c0.5-0.8,0.6-2.1-1.6-4l-0.5,1.5c0.7,0.7,1,1.4,0.8,1.7c-0.2,0.3-0.8,0.6-1.6,0.7c-1,0.1-2.3,0-3.5-0.4c-2.2-0.8-3.7-2-4.1-3.3
					c-0.2-0.7,0-1.5,0.6-2.3c0.2-0.3,0.2-0.8-0.1-1c-0.3-0.2-0.8-0.2-1,0.2C895.6,696.9,895.7,698.2,895.9,699z"/>
			</g>
			<g>
				<path class="st7" d="M890.9,714.7c0.5,1.7,2.3,3.2,5,4.2c0.1,0,0.2,0.1,0.3,0.1c1,0.3,2.2,0.5,3.2,0.4c1.5,0,2.8-0.5,3.3-1.4
					c0.5-0.8,0.6-2.1-1.6-4l-0.5,1.5c0.7,0.7,1,1.4,0.8,1.7c-0.2,0.3-0.8,0.6-1.6,0.7c-1,0.1-2.3,0-3.5-0.4c-2.2-0.8-3.7-2-4.1-3.3
					c-0.2-0.7,0-1.5,0.6-2.3c0.2-0.3,0.2-0.8-0.1-1c-0.3-0.2-0.8-0.2-1,0.2C890.6,712.5,890.7,713.8,890.9,714.7z"/>
			</g>
		</g>
	</g>
	<g id="book_4">
		<path class="st9" d="M722,697.5c-0.8,4.5,1.6,8.6,5.2,9.2l95.3,16.2c3.6,0.6,6.9-1,7.7-5.5l24.1-142.5c0.8-4.5-1.4-5.5-5-6.2
			l-96.1-16.3c-3.6-0.6-6.8,0.3-7.6,4.8L722,697.5z"/>
		<path class="st1" d="M720.1,689.5c-0.7,4.3,1.6,8.2,5.3,8.8l91.7,17.2c4.5,1.6,7,3,9.6,3.7l24.8-146.1c-1.5-1.4-3.8-3.2-6.7-5.2
			l-94.6-16c-3.6-0.6-6.8,0.2-7.5,4.5L720.1,689.5z"/>
		<path class="st2" d="M826.7,719.2l-100.9-17.1c0,0-2.2-1.1-3.3-5.7c-0.9-3.8,73.4,10.6,95,19.1C821.3,717,826.7,719.2,826.7,719.2
			z"/>
		<path class="st9" d="M717,691.8c-0.8,4.4,1.7,7.8,5.3,8.4l95.3,16.2c3.6,0.6,6.9-1,7.7-5.5l23.8-140.4c0.8-4.4-2-6.3-5.6-6.9
			l-95.3-16.2c-3.6-0.6-6.8,0.3-7.6,4.7L717,691.8z"/>
		<path class="st4" d="M834.7,582.8c0.3-3.7-0.8-7.1-4.4-9.1c-5.2-2.8-11.6-4.4-17.2-6.1c-5.7-1.7-14.7-3.7-18.4-5.9
			c1.1-1.6,7,0,9.3,0.4c3.1,0.5,6.2,1.1,9.3,1.6c6.5,1,13,2.2,19.5,3.3c1.5,0.2,3,0.5,4.5,0.7c3.3,0.6,5.8,2.3,5.2,6.4l-9.2,54.2
			c-0.8-11.7,0-20.9,0.6-30.5C834.1,592.8,834.3,587.7,834.7,582.8z"/>
		<path class="st5" d="M732.1,622.3c-0.2,5.3-1,10.5-1.5,15.8c-1,10.1-1.7,20.4-1.7,30.5c0,6.8,0.7,13.7,5.2,19.1
			c7.8,9.2,22.5,8.8,33.2,11.3c19.3,4.5,38.6,8.1,58.3,10.5l-0.2,1.4c-0.8,4.4-4.1,6.1-7.7,5.5l-95.3-16.2c-3.6-0.6-6.1-4-5.3-8.4
			l14.3-84.5C731.8,612.3,732.3,617.3,732.1,622.3z"/>
		<path class="st6" d="M749.4,587.9c-0.5,3.1,1.2,5.5,3.8,5.9l67,11.4c2.6,0.4,4.9-0.7,5.4-3.9l3-17.6c0.5-3.1-1.4-4.4-3.9-4.9
			l-67-11.4c-2.6-0.4-4.8,0.2-5.3,3.3L749.4,587.9z"/>
		<path class="st5" d="M756.5,569.5c-0.4,1.8-0.5,3.6-0.3,5.4c0.5,4,2.4,7.2,5,10.4c2.9,3.6,5.9,6.3,10.3,8.1
			c2.7,1.1,5.4,2.1,8.2,2.9l-23.9-4.1c-2.3-0.4-3.9-2.5-3.5-5.2l2.5-14.9C755,570.7,755.6,569.9,756.5,569.5z"/>
		<g>
			<g>
				<path class="st7" d="M842.8,585.8c0.8,1.6,2.8,2.9,5.6,3.5c0.1,0,0.2,0,0.4,0.1c1.1,0.2,2.2,0.2,3.2,0c1.5-0.3,2.7-0.9,3.1-1.9
					c0.4-0.8,0.3-2.2-2.1-3.7l-0.3,1.6c0.8,0.6,1.2,1.2,1.1,1.6c-0.2,0.4-0.7,0.7-1.5,0.9c-1,0.3-2.3,0.3-3.5,0.1
					c-2.3-0.5-4-1.5-4.5-2.6c-0.3-0.7-0.3-1.5,0.2-2.4c0.2-0.4,0.1-0.8-0.3-1c-0.4-0.2-0.8-0.1-1,0.3
					C842.2,583.7,842.5,585,842.8,585.8z"/>
			</g>
			<g>
				<path class="st7" d="M840.1,602c0.8,1.6,2.8,2.9,5.6,3.5c0.1,0,0.2,0,0.4,0.1c1.1,0.2,2.2,0.2,3.2,0c1.5-0.3,2.7-0.9,3.1-1.9
					c0.4-0.8,0.3-2.2-2.1-3.7l-0.3,1.6c0.8,0.6,1.2,1.2,1.1,1.6c-0.2,0.4-0.7,0.7-1.5,0.9c-1,0.3-2.3,0.3-3.5,0.1
					c-2.3-0.5-4-1.5-4.5-2.6c-0.3-0.7-0.3-1.5,0.2-2.4c0.2-0.4,0.1-0.8-0.3-1c-0.4-0.2-0.8-0.1-1,0.3
					C839.5,599.9,839.7,601.2,840.1,602z"/>
			</g>
			<g>
				<path class="st7" d="M837.3,618.2c0.8,1.6,2.8,2.9,5.6,3.5c0.1,0,0.2,0,0.4,0.1c1.1,0.2,2.2,0.2,3.2,0c1.5-0.3,2.7-0.9,3.1-1.9
					c0.4-0.8,0.3-2.2-2.1-3.7l-0.3,1.6c0.8,0.6,1.2,1.2,1.1,1.6c-0.2,0.4-0.7,0.7-1.5,0.9c-1,0.3-2.3,0.3-3.5,0.1
					c-2.3-0.5-4-1.5-4.5-2.6c-0.3-0.7-0.3-1.5,0.2-2.4c0.2-0.4,0.1-0.8-0.3-1c-0.4-0.2-0.8-0.1-1,0.3
					C836.7,616.1,837,617.4,837.3,618.2z"/>
			</g>
			<g>
				<path class="st7" d="M834.6,634.4c0.8,1.6,2.8,2.9,5.6,3.5c0.1,0,0.2,0,0.4,0.1c1.1,0.2,2.2,0.2,3.2,0c1.5-0.3,2.7-0.9,3.1-1.9
					c0.4-0.8,0.3-2.2-2.1-3.7l-0.3,1.6c0.8,0.6,1.2,1.2,1.1,1.6c-0.2,0.4-0.7,0.7-1.5,0.9c-1,0.3-2.3,0.3-3.5,0.1
					c-2.3-0.5-4-1.5-4.5-2.6c-0.3-0.7-0.3-1.5,0.2-2.4c0.2-0.4,0.1-0.8-0.3-1c-0.4-0.2-0.8-0.1-1,0.3
					C834,632.4,834.2,633.6,834.6,634.4z"/>
			</g>
			<g>
				<path class="st7" d="M831.8,650.6c0.8,1.6,2.8,2.9,5.6,3.5c0.1,0,0.2,0,0.4,0.1c1.1,0.2,2.2,0.2,3.2,0c1.5-0.3,2.7-0.9,3.1-1.9
					c0.4-0.8,0.3-2.2-2.1-3.7l-0.3,1.6c0.8,0.6,1.2,1.2,1.1,1.6c-0.2,0.4-0.7,0.7-1.5,0.9c-1,0.3-2.3,0.3-3.5,0.1
					c-2.3-0.5-4-1.5-4.5-2.6c-0.3-0.7-0.3-1.5,0.2-2.4c0.2-0.4,0.1-0.8-0.3-1c-0.4-0.2-0.8-0.1-1,0.3
					C831.2,648.6,831.5,649.8,831.8,650.6z"/>
			</g>
			<g>
				<path class="st7" d="M829.1,666.8c0.8,1.6,2.8,2.9,5.6,3.5c0.1,0,0.2,0,0.4,0.1c1.1,0.2,2.2,0.2,3.2,0c1.5-0.3,2.7-0.9,3.1-1.9
					c0.4-0.8,0.3-2.2-2.1-3.7l-0.3,1.6c0.8,0.6,1.2,1.2,1.1,1.6c-0.2,0.4-0.7,0.7-1.5,0.9c-1,0.3-2.3,0.3-3.5,0.1
					c-2.3-0.5-4-1.5-4.5-2.6c-0.3-0.7-0.3-1.5,0.2-2.4c0.2-0.4,0.1-0.8-0.3-1c-0.4-0.2-0.8-0.1-1,0.3
					C828.5,664.8,828.7,666.1,829.1,666.8z"/>
			</g>
			<g>
				<path class="st7" d="M826.3,683.1c0.8,1.6,2.8,2.9,5.6,3.5c0.1,0,0.2,0,0.4,0.1c1.1,0.2,2.2,0.2,3.2,0c1.5-0.3,2.7-0.9,3.1-1.9
					c0.4-0.8,0.3-2.2-2.1-3.7l-0.3,1.6c0.8,0.6,1.2,1.2,1.1,1.6c-0.2,0.4-0.7,0.7-1.5,0.9c-1,0.3-2.3,0.3-3.5,0.1
					c-2.3-0.5-4-1.5-4.5-2.6c-0.3-0.7-0.3-1.5,0.2-2.4c0.2-0.4,0.1-0.8-0.3-1c-0.4-0.2-0.8-0.1-1,0.3
					C825.7,681,826,682.3,826.3,683.1z"/>
			</g>
			<g>
				<path class="st7" d="M823.6,699.3c0.8,1.6,2.8,2.9,5.6,3.5c0.1,0,0.2,0,0.4,0.1c1.1,0.2,2.2,0.2,3.2,0c1.5-0.3,2.7-0.9,3.1-1.9
					c0.4-0.8,0.3-2.2-2.1-3.7l-0.3,1.6c0.8,0.6,1.2,1.2,1.1,1.6c-0.2,0.4-0.7,0.7-1.5,0.9c-1,0.3-2.3,0.3-3.5,0.1
					c-2.3-0.5-4-1.5-4.5-2.6c-0.3-0.7-0.3-1.5,0.2-2.4c0.2-0.4,0.1-0.8-0.3-1c-0.4-0.2-0.8-0.1-1,0.3
					C823,697.2,823.2,698.5,823.6,699.3z"/>
			</g>
		</g>
	</g>
	<g id="book_3">
		<path class="st10" d="M746.2,692.8c0.8,4.5-1.6,8.6-5.2,9.2l-95.4,16c-3.6,0.6-6.9-1-7.7-5.5L614,570c-0.8-4.5,1.4-5.5,5-6.1
			l96.1-16.1c3.6-0.6,6.8,0.3,7.6,4.8L746.2,692.8z"/>
		<path class="st1" d="M748.1,684.8c0.7,4.3-1.7,8.2-5.3,8.8l-91.8,17c-4.5,1.6-7,3-9.6,3.7l-24.5-146.1c1.5-1.4,3.8-3.2,6.7-5.2
			l94.6-15.9c3.6-0.6,6.8,0.2,7.5,4.5L748.1,684.8z"/>
		<path class="st2" d="M641.5,714.4l100.9-16.9c0,0,2.2-1.1,3.3-5.7c0.9-3.8-73.4,10.5-95,18.9C646.9,712.2,641.5,714.4,641.5,714.4
			z"/>
		<path class="st10" d="M751.2,687.1c0.7,4.4-1.7,7.8-5.4,8.4l-95.4,16c-3.6,0.6-6.9-1.1-7.7-5.5l-23.6-140.4
			c-0.7-4.4,2-6.3,5.6-6.9l95.4-16c3.6-0.6,6.8,0.3,7.6,4.7L751.2,687.1z"/>
		<path class="st4" d="M633.7,577.9c-0.3-3.7,0.8-7.1,4.4-9.1c5.2-2.8,11.6-4.3,17.3-6c5.7-1.7,14.7-3.7,18.5-5.9
			c-1.1-1.6-7,0-9.3,0.4c-3.1,0.5-6.2,1.1-9.3,1.6c-6.5,1-13,2.2-19.5,3.3c-1.5,0.2-3,0.5-4.5,0.7c-3.3,0.6-5.8,2.3-5.2,6.4
			l9.1,54.2c0.8-11.7,0.1-20.9-0.5-30.5C634.3,588,634.1,582.8,633.7,577.9z"/>
		<path class="st5" d="M736.2,617.6c0.2,5.3,1,10.5,1.5,15.8c0.9,10.1,1.6,20.4,1.6,30.5c0,6.8-0.7,13.7-5.3,19.1
			c-7.8,9.1-22.5,8.7-33.2,11.2c-19.3,4.4-38.6,8.1-58.3,10.4l0.2,1.4c0.7,4.4,4.1,6.1,7.7,5.5l95.4-16c3.6-0.6,6.1-4,5.4-8.4
			L737,602.6C736.6,607.6,736.1,612.6,736.2,617.6z"/>
		<path class="st6" d="M719,583.2c0.5,3.1-1.2,5.5-3.8,5.9l-67,11.3c-2.6,0.4-4.9-0.7-5.4-3.9l-2.9-17.6c-0.5-3.1,1.4-4.4,3.9-4.9
			l67-11.3c2.6-0.4,4.8,0.2,5.3,3.3L719,583.2z"/>
		<path class="st5" d="M712,564.8c0.4,1.8,0.5,3.6,0.3,5.4c-0.5,4-2.5,7.2-5,10.3c-2.9,3.6-5.9,6.2-10.3,8.1
			c-2.7,1.1-5.4,2.1-8.2,2.9l23.9-4c2.3-0.4,3.9-2.5,3.5-5.2l-2.5-14.9C713.4,566,712.8,565.2,712,564.8z"/>
		<g>
			<g>
				<path class="st7" d="M625.6,580.9c-0.8,1.6-2.8,2.9-5.6,3.5c-0.1,0-0.2,0-0.4,0.1c-1.1,0.2-2.2,0.2-3.2,0
					c-1.5-0.3-2.7-0.9-3.1-1.9c-0.4-0.8-0.3-2.2,2.2-3.7l0.3,1.6c-0.8,0.6-1.2,1.2-1.1,1.6c0.2,0.4,0.7,0.7,1.5,0.9
					c1,0.3,2.3,0.3,3.5,0.1c2.3-0.5,4-1.5,4.5-2.6c0.3-0.7,0.3-1.5-0.2-2.4c-0.2-0.4-0.1-0.8,0.3-1c0.4-0.2,0.8-0.1,1,0.3
					C626.2,578.9,625.9,580.1,625.6,580.9z"/>
			</g>
			<g>
				<path class="st7" d="M628.3,597.1c-0.8,1.6-2.8,2.9-5.6,3.5c-0.1,0-0.2,0-0.4,0.1c-1.1,0.2-2.2,0.2-3.2,0
					c-1.5-0.3-2.7-0.9-3.1-1.9c-0.4-0.8-0.3-2.2,2.2-3.7l0.3,1.6c-0.8,0.6-1.2,1.2-1.1,1.6c0.2,0.4,0.7,0.7,1.5,0.9
					c1,0.3,2.3,0.3,3.5,0.1c2.3-0.5,4-1.5,4.5-2.6c0.3-0.7,0.3-1.5-0.2-2.4c-0.2-0.4-0.1-0.8,0.3-1c0.4-0.2,0.8-0.1,1,0.3
					C628.9,595.1,628.7,596.4,628.3,597.1z"/>
			</g>
			<g>
				<path class="st7" d="M631,613.4c-0.8,1.6-2.8,2.9-5.6,3.5c-0.1,0-0.2,0-0.4,0.1c-1.1,0.2-2.2,0.2-3.2,0
					c-1.5-0.3-2.7-0.9-3.1-1.9c-0.4-0.8-0.3-2.2,2.2-3.7l0.3,1.6c-0.8,0.6-1.2,1.2-1.1,1.6c0.2,0.4,0.7,0.7,1.5,0.9
					c1,0.3,2.3,0.3,3.5,0.1c2.3-0.5,4-1.5,4.5-2.6c0.3-0.7,0.3-1.5-0.2-2.4c-0.2-0.4-0.1-0.8,0.3-1c0.4-0.2,0.8-0.1,1,0.3
					C631.6,611.3,631.4,612.6,631,613.4z"/>
			</g>
			<g>
				<path class="st7" d="M633.8,629.6c-0.8,1.6-2.8,2.9-5.6,3.5c-0.1,0-0.2,0-0.4,0.1c-1.1,0.2-2.2,0.2-3.2,0
					c-1.5-0.3-2.7-0.9-3.1-1.9c-0.4-0.8-0.3-2.2,2.2-3.7l0.3,1.6c-0.8,0.6-1.2,1.2-1.1,1.6c0.2,0.4,0.7,0.7,1.5,0.9
					c1,0.3,2.3,0.3,3.5,0.1c2.3-0.5,4-1.5,4.5-2.6c0.3-0.7,0.3-1.5-0.2-2.4c-0.2-0.4-0.1-0.8,0.3-1c0.4-0.2,0.8-0.1,1,0.3
					C634.4,627.5,634.1,628.8,633.8,629.6z"/>
			</g>
			<g>
				<path class="st7" d="M636.5,645.8c-0.8,1.6-2.8,2.9-5.6,3.5c-0.1,0-0.2,0-0.4,0.1c-1.1,0.2-2.2,0.2-3.2,0
					c-1.5-0.3-2.7-0.9-3.1-1.9c-0.4-0.8-0.3-2.2,2.2-3.7l0.3,1.6c-0.8,0.6-1.2,1.2-1.1,1.6c0.2,0.4,0.7,0.7,1.5,0.9
					c1,0.3,2.3,0.3,3.5,0.1c2.3-0.5,4-1.5,4.5-2.6c0.3-0.7,0.3-1.5-0.2-2.4c-0.2-0.4-0.1-0.8,0.3-1c0.4-0.2,0.8-0.1,1,0.3
					C637.1,643.7,636.8,645,636.5,645.8z"/>
			</g>
			<g>
				<path class="st7" d="M639.2,662c-0.8,1.6-2.8,2.9-5.6,3.5c-0.1,0-0.2,0-0.4,0.1c-1.1,0.2-2.2,0.2-3.2,0
					c-1.5-0.3-2.7-0.9-3.1-1.9c-0.4-0.8-0.3-2.2,2.2-3.7l0.3,1.6c-0.8,0.6-1.2,1.2-1.1,1.6c0.2,0.4,0.7,0.7,1.5,0.9
					c1,0.3,2.3,0.3,3.5,0.1c2.3-0.5,4-1.5,4.5-2.6c0.3-0.7,0.3-1.5-0.2-2.4c-0.2-0.4-0.1-0.8,0.3-1c0.4-0.2,0.8-0.1,1,0.3
					C639.8,660,639.6,661.2,639.2,662z"/>
			</g>
			<g>
				<path class="st7" d="M641.9,678.2c-0.8,1.6-2.8,2.9-5.6,3.5c-0.1,0-0.2,0-0.4,0.1c-1.1,0.2-2.2,0.2-3.2,0
					c-1.5-0.3-2.7-0.9-3.1-1.9c-0.4-0.8-0.3-2.2,2.2-3.7l0.3,1.6c-0.8,0.6-1.2,1.2-1.1,1.6c0.2,0.4,0.7,0.7,1.5,0.9
					c1,0.3,2.3,0.3,3.5,0.1c2.3-0.5,4-1.5,4.5-2.6c0.3-0.7,0.3-1.5-0.2-2.4c-0.2-0.4-0.1-0.8,0.3-1c0.4-0.2,0.8-0.1,1,0.3
					C642.5,676.2,642.3,677.4,641.9,678.2z"/>
			</g>
			<g>
				<path class="st7" d="M644.6,694.4c-0.8,1.6-2.8,2.9-5.6,3.5c-0.1,0-0.2,0-0.4,0.1c-1.1,0.2-2.2,0.2-3.2,0
					c-1.5-0.3-2.7-0.9-3.1-1.9c-0.4-0.8-0.3-2.2,2.2-3.7l0.3,1.6c-0.8,0.6-1.2,1.2-1.1,1.6c0.2,0.4,0.7,0.7,1.5,0.9
					c1,0.3,2.3,0.3,3.5,0.1c2.3-0.5,4-1.5,4.5-2.6c0.3-0.7,0.3-1.5-0.2-2.4c-0.2-0.4-0.1-0.8,0.3-1c0.4-0.2,0.8-0.1,1,0.3
					C645.2,692.4,645,693.7,644.6,694.4z"/>
			</g>
		</g>
	</g>
	<g id="fita">
		
			<linearGradient id="SVGID_1_" gradientUnits="userSpaceOnUse" x1="4579.7715" y1="772.3508" x2="4326.9624" y2="772.3508" gradientTransform="matrix(-1 0 0 1 5663.6655 0)">
			<stop  offset="0" style="stop-color:#AA0009"/>
			<stop  offset="1" style="stop-color:#890005"/>
		</linearGradient>
		<path class="st11" d="M1087,896.6c0,0.6-0.5,1.1-1.1,1.3c-1.1,0.3-2,0.6-2,1c0.1,2.2,42.6,1.3,53.6,1
			c26.5-0.6,83.7-8.6,197.7-34.5c0.8-0.2,1.7-1.6,1.3-2.3c-16.6-32.8-34.9-61.6-51.6-94.3c-0.2-0.3-0.2-0.7,0-1.1
			c16.4-40.3,32.8-80.6,49.2-120.9c0.3-0.8-0.2-1.7-1.1-1.8c-27.2-1.7-72.7-0.1-119.1,25.1C1098.9,732.5,1087.8,880.1,1087,896.6z"
			/>
		
			<linearGradient id="SVGID_00000114070374597223523630000009442647975739445936_" gradientUnits="userSpaceOnUse" x1="335.2953" y1="774.014" x2="84.2019" y2="774.014">
			<stop  offset="0" style="stop-color:#AA0009"/>
			<stop  offset="1" style="stop-color:#890005"/>
		</linearGradient>
		<path style="fill:url(#SVGID_00000114070374597223523630000009442647975739445936_);" d="M332.3,897.9c0,0.6,0.4,1.4,1.1,1.3
			c0.9-0.1-0.5-5.6,1.9,2.3c0.7,2.1-42.5,0-53.6-0.3c-26.5-0.6-82.4-5.1-196.5-31c-0.8-0.2-1.3-1.1-0.9-1.9
			c16.6-32.8,33.2-65.5,49.9-98.3c0.2-0.3,0.2-0.7,0-1.1c-16.4-40.3-32.8-80.6-49.2-120.9c-0.3-0.8,0.2-1.7,1.1-1.8
			c27.2-1.7,72.7-0.1,119.1,25.1C320.3,733.8,331.4,881.3,332.3,897.9z"/>
		
			<linearGradient id="SVGID_00000072247224285464555780000005539494801052551344_" gradientUnits="userSpaceOnUse" x1="200.9013" y1="872.4064" x2="335.4198" y2="872.4064">
			<stop  offset="0" style="stop-color:#730009"/>
			<stop  offset="1" style="stop-color:#5F0005"/>
		</linearGradient>
		<path style="fill:url(#SVGID_00000072247224285464555780000005539494801052551344_);" d="M335.3,901.5
			c-44.8-19.4-89.6-38.8-134.4-58.2c44.6,7.5,89.9,7.7,134.4,15.2C335.6,870.4,335.1,889.6,335.3,901.5z"/>
		
			<linearGradient id="SVGID_00000029034357368874406310000016548154087896715919_" gradientUnits="userSpaceOnUse" x1="4275.7842" y1="869.7369" x2="4410.3027" y2="869.7369" gradientTransform="matrix(-1 0 0 1 5494.104 0)">
			<stop  offset="0" style="stop-color:#730009"/>
			<stop  offset="1" style="stop-color:#5F0005"/>
		</linearGradient>
		<path style="fill:url(#SVGID_00000029034357368874406310000016548154087896715919_);" d="M1083.9,898.9
			c43.7-18.9,90-38.5,133.7-57.5c1.1-0.5-0.3-0.3,0.8-0.8c-22.4,2.5-44.8,5.7-67.2,7.6c-22.5,1.9-44.9,3.8-67.2,7.6
			C1083.6,867.7,1084.1,886.9,1083.9,898.9z"/>
		
			<linearGradient id="SVGID_00000125583282291687745430000016371163595658812091_" gradientUnits="userSpaceOnUse" x1="200.0833" y1="750.7516" x2="1218.3195" y2="750.7516">
			<stop  offset="0" style="stop-color:#AA0009"/>
			<stop  offset="1" style="stop-color:#D40005"/>
		</linearGradient>
		<path style="fill:url(#SVGID_00000125583282291687745430000016371163595658812091_);" d="M202.2,622.3c0-0.6,0.5-1,1.1-0.9
			c141.5,23.9,310.2,42.2,500.5,43c195.7,0.8,368.9-17.1,513.4-40.8c0.6-0.1,1.1,0.3,1.1,0.9v216c0,0.5-0.3,0.9-0.8,0.9
			c-145,21.9-313.8,38-501.9,38.7c-119.7,0.5-297.5-5.1-508.6-35.7c-2.5-0.4-4.6-0.7-6.2-0.9c-0.5-0.1-0.8-0.5-0.8-0.9
			C200.8,769.2,201.5,695.7,202.2,622.3z"/>
	</g>
	<g id="papelaria">
		<path class="st16" d="M562.4,750.7c1.7-4.1,3-8.4,4-12.8c0.9-4.4,1.4-8.8,1.4-13.3c0-4-0.4-7.8-1.1-11.6
			c-0.7-3.8-1.9-7.4-3.5-10.9c-1.6-3.5-3.6-6.7-6-9.7c-2.4-3-5.2-5.6-8.5-7.9c-4.2-2.7-8.8-4.7-13.9-6c-5.1-1.3-10.5-2-16.2-2
			c-3,0-6.2,0.2-9.4,0.7c-3.2,0.4-6.5,1.1-9.7,1.9c-3.2,0.8-6.4,1.8-9.6,3c-3.1,1.2-6.2,2.5-9.1,4c-4.6,2.4-9.1,5.2-13.7,8.4
			c-4.6,3.2-8.9,6.8-12.9,10.9c-4,4-7.7,8.4-10.9,13.1c-3.2,4.7-5.8,9.8-7.6,15.2c-0.7,2.1-1.2,4.3-1.6,6.7
			c-0.4,2.3-0.5,4.6-0.5,6.8c0,3.8,0.5,7.5,1.5,11c1,3.5,2.4,6.7,4.4,9.4c1.9,2.7,4.3,4.9,7.2,6.5c2.8,1.6,6.1,2.4,9.9,2.4
			c3,0,6.2-0.6,9.5-1.7c2.3-0.9,4.5-2.1,6.6-3.6c2.1-1.5,3.9-3.4,5.4-5.7c1-1.7,1.8-3.3,2.4-4.9c0.6-1.5,0.9-3,0.9-4.3
			c-0.4-0.8-0.7-1.4-1.1-1.8c-0.4-0.4-0.7-0.5-1.1-0.5c-0.4,0-0.7,0.1-1.1,0.3c-0.4,0.2-0.7,0.5-1.2,0.8c-0.3,1.5-0.7,2.9-1.2,4.1
			c-0.5,1.2-1,2.2-1.6,3c-1.2,1.7-2.7,3-4.4,3.9c-1.7,0.9-3.4,1.5-5.3,1.8c-0.5,0.1-0.9,0.2-1.3,0.2c-0.4,0-0.9,0-1.3,0
			c-2.8,0-5.4-0.6-7.5-1.9c-2.2-1.3-4-3-5.4-5.1c-1.4-2.1-2.5-4.6-3.2-7.3c-0.7-2.7-1.1-5.6-1.1-8.7c0-1.1,0-2.3,0.1-3.5
			c0.1-1.2,0.3-2.4,0.5-3.5c0.9-5.3,2.5-10.2,4.8-14.8c2.3-4.5,5.2-8.6,8.6-12.3c3.4-3.7,7.2-6.9,11.5-9.8c4.3-2.8,8.8-5.2,13.5-7.1
			c9.3-3.2,17.4-4.8,24.5-4.8c6.6,0,12.4,1.2,17.1,3.6c4.8,2.4,8.7,5.5,11.8,9.4c3.1,3.9,5.3,8.4,6.8,13.4c1.4,5,2.1,10.2,2.1,15.4
			c0,5.5-0.7,10.9-2.2,16.3c-1.5,5.4-3.5,10.1-6.3,14.3c-2.7,4.2-6,7.6-9.9,10.1c-3.9,2.5-8.2,3.8-13,3.8c1.4-8.7,2.6-16.6,3.4-23.8
			c0.9-7.2,1.2-14,1.1-20.5c-0.1-1.6-0.3-3.2-0.6-4.7c-0.4-1.5-1-2.9-1.9-4c-0.9-1.2-2.2-2.1-3.9-2.7c-1.7-0.6-3.8-0.9-6.5-0.8
			c-0.9,0.1-1.7,0.3-2.4,0.7c-0.7,0.4-1.1,1-1.1,1.8c0,0.3,0,0.5,0.1,0.8c0.1,0.2,0.1,0.4,0.3,0.7c0.2,0.5,0.4,1.2,0.5,2
			c0.2,0.9,0.3,1.8,0.3,2.7c-0.4,4.8-0.8,10.1-1.4,15.8c-0.6,5.7-1.3,11.4-2.2,17.3c-0.9,5.9-1.8,11.7-2.9,17.4
			c-1.1,5.8-2.3,11.2-3.6,16.2c-0.9,3.7-2.1,7.3-3.5,10.9c-1.4,3.6-3.1,6.8-5.1,9.6c-2,2.8-4.4,5.1-7.2,6.8
			c-2.8,1.7-5.9,2.6-9.6,2.6c-1.2,0-2.4-0.1-3.6-0.2c-1.2-0.1-2.4-0.4-3.7-0.8c-1.6,0.5-2.4,1.1-2.5,1.9c-0.1,0.8,0.4,1.7,1.4,2.7
			c2.9,1.2,5.6,2,8.2,2.5c2.5,0.5,5,0.7,7.2,0.7c5.4,0,10.1-1.3,14.1-3.9c4-2.6,7.5-6.1,10.5-10.5c3-4.4,5.5-9.4,7.6-15.1
			c2.1-5.7,4-11.7,5.6-17.9c1.9,0,3.8-0.1,5.6-0.2c1.9-0.1,3.8-0.3,5.6-0.6c4.4-0.6,8.5-1.8,12.4-3.7c3.9-1.9,7.4-4.2,10.6-7.1
			c3.2-2.8,6.1-6.1,8.6-9.7C558.5,758.7,560.7,754.8,562.4,750.7z"/>
		<path class="st16" d="M894.4,814.1c-1.2-1.3-2.7-2.4-4.4-3.2c-1.7-0.8-3.6-1.2-5.8-1.2c-2,0-4.2,0.4-6.5,1.2
			c-2.7,1-4.9,2.7-6.7,5.1c-1.8,2.4-2.7,5.5-2.7,9.2c-1.1-1.2-2.2-2.2-3.2-3.2c-1.1-0.9-2.3-1.9-3.7-2.9c0.6-3,1.3-6.1,2.2-9.3
			c0.9-3.3,1.9-6.6,3-9.9c1.1-3.4,2.2-6.8,3.4-10.2c1.2-3.4,2.3-6.7,3.5-9.9c0.2-0.5,0.4-1.1,0.7-1.8c0.3-0.7,0.6-1.2,0.8-1.8
			c0.6-1.4,1.3-3.1,2-5s1.5-3.8,2.1-5.8c0.7-2,1.2-3.9,1.7-5.7c0.5-1.9,0.7-3.5,0.7-4.9c0-2.4-0.7-4-2.2-4.6
			c-0.7-0.3-1.5-0.5-2.4-0.6c-0.9-0.1-1.9-0.1-2.9-0.1c-0.4,0-0.9,0-1.3,0c-0.5,0-0.9,0-1.4,0c-0.5,0-1.1,0-1.6,0c-0.5,0-1,0-1.5,0
			c-0.8,0-1.7,0-2.5-0.1c-0.9-0.1-1.6-0.1-2.3-0.3c0.1-0.2,0.2-0.4,0.2-0.5c0-0.1,0.1-0.3,0.2-0.4c0.3-0.8,0.7-1.9,1.2-3.2
			c0.5-1.3,0.9-2.7,1.4-4.3c0.4-1.5,0.9-3.1,1.2-4.7c0.4-1.6,0.7-3.2,0.8-4.7c0.2-3-0.3-5.2-1.5-6.8c-1.2-1.6-3-2.4-5.5-2.4
			c-2.3,0-4.3,0.5-6.1,1.5c-1.8,1-3.4,2.3-4.8,3.9c-1.4,1.6-2.4,3.5-3.2,5.5c-0.8,2-1.3,4.1-1.5,6.1c-0.2,1.8-0.1,3.6,0.2,5.4
			c0.3,1.7,0.9,3.3,1.8,4.7c0.9,1.4,2.1,2.5,3.6,3.4c1.5,0.9,3.3,1.4,5.5,1.5c-0.5,1.1-1.1,2.2-1.7,3.3c-0.2,0-0.3,0.1-0.5,0.1
			c-0.5,0.8-1.1,1.9-1.7,3.1c-0.7,1.3-1.4,2.6-2,4c-1.2,2.2-2.5,4.6-4,7.2c-1.5,2.6-3,5.2-4.5,7.8c-1.6,2.6-3.2,5-4.8,7.3
			c-1.6,2.3-3.1,4.1-4.5,5.5c-0.8,0.7-1.4,0.9-1.7,0.6c-0.4-0.2-0.7-0.7-0.8-1.5c-0.1-0.8-0.2-1.7-0.1-2.9c0.1-1.2,0.1-2.3,0.3-3.4
			c0.1-1.1,0.3-2.2,0.4-3.1c0.1-0.9,0.3-1.6,0.3-2c0.3-1.9,0.7-3.9,1.3-6.1c0.6-2.2,0.8-4.2,0.6-6.1c-0.2-1.8-1-3.4-2.4-4.7
			c-1.4-1.3-3.8-2.1-7.3-2.4c-0.9,0.1-1.7,0.2-2.5,0.5c-0.8,0.3-1.1,0.8-1,1.6c0.1,1.1,0,2-0.4,2.9c-0.4,0.9-0.7,1.7-0.8,2.3
			c-1.1,2.2-2.5,4.7-4.2,7.7c-1.7,2.9-3.5,5.7-5.4,8.4c-1.9,2.7-3.9,4.9-6,6.8c-2,1.9-4,2.8-5.8,2.8c-1.1,0-1.9-0.3-2.5-0.8
			c-0.6-0.5-1-1.2-1.3-2c-0.3-0.8-0.5-1.7-0.5-2.6c0-0.9,0-1.8,0-2.7c0.1-1.7,0.6-4,1.4-6.7c0.8-2.8,1.9-5.8,3.2-8.9
			c1.3-3.2,2.9-6.3,4.6-9.5c1.7-3.2,3.6-6.1,5.5-8.7c2-2.6,4-4.7,6.1-6.3c2.1-1.6,4.2-2.4,6.3-2.4c1.6,0,3,0.4,4.1,1.3
			c1.1,0.9,2,1.9,2.8,3.2c0.7,1.3,1.2,2.8,1.5,4.4c0.3,1.6,0.4,3.2,0.3,4.7c-0.1,0.7-0.2,1.3-0.3,1.8c-0.1,0.6-0.3,1.2-0.5,1.8
			c0.5,0.7,1.2,1.1,1.9,1.1c0.2,0,0.6-0.1,1.2-0.3c0.6-0.2,0.9-0.4,1-0.5l0.1-0.1c0.5-1.5,0.9-3.1,1.1-4.8c0.2-2.5,0-5-0.7-7.4
			c-0.6-2.5-1.6-4.7-3-6.7c-1.4-2-3.1-3.6-5.1-4.8c-2-1.2-4.3-1.9-6.9-1.9c-3.4,0-6.6,0.8-9.8,2.4c-3.1,1.6-6.1,3.8-8.9,6.5
			c-2.8,2.7-5.4,5.8-7.8,9.3c-2.4,3.5-4.5,7.1-6.3,10.8c-1.5,3.1-2.8,6.3-3.9,9.3c-0.1,0.2-0.2,0.3-0.2,0.5c-1.8,3.5-3.8,6.9-6,10.1
			c-2.2,3.2-4.4,5.9-6.8,8.1c-2.4,2.2-4.8,3.3-7.2,3.3c-2,0-3.3-1-4.1-2.9c-0.8-2-1.2-4.3-1.2-7.2c0-0.6,0-1.3,0-2
			c0-0.7,0.1-1.4,0.2-2.2c0.2-2.3,0.6-4.6,1-7c0.4-2.4,0.8-4.5,1.2-6.4c0.4-1.9,0.9-4,1.6-6.4c3.1-2.8,6.1-5.9,9.2-9.3
			c3-3.4,5.8-7,8.3-10.7c2.5-3.8,4.6-7.6,6.3-11.6c1.7-4,2.7-7.9,3.1-11.9c0.1-1.2,0-2.6-0.2-4.2c-0.2-1.6-0.6-3-1.2-4.3
			c-0.6-1.3-1.4-2.5-2.4-3.4c-1-0.9-2.2-1.4-3.7-1.4c-2.6,0-5.1,0.8-7.4,2.4c-2.3,1.6-4.5,3.8-6.6,6.6c-2,2.8-4,5.9-5.7,9.6
			c-1.8,3.6-3.4,7.5-4.9,11.5c-1.5,4-2.8,8.1-4,12.2c-1.2,4.1-2.2,8.1-3,11.9c-0.2,1-0.4,2-0.6,2.9c-0.4,0.7-0.7,1.4-1.1,2
			c-1,2-2.1,4.1-3.3,6.5c-1.2,2.4-2.5,4.8-4,7.3v-0.1c-1.1,1.9-2.4,4-3.9,6.3c-1.5,2.3-3.1,4.4-4.8,6.4c-1.7,2-3.6,3.7-5.6,5
			c-2,1.4-4.2,2.1-6.4,2.1c-1.4-0.1-2.6-0.5-3.6-1.1c-0.9-0.6-1.7-1.4-2.2-2.4c-0.5-1-0.9-2.1-1.1-3.3c-0.2-1.2-0.3-2.5-0.3-3.8
			c0-0.5,0-1,0-1.5c0-0.5,0-1,0.1-1.5c0.1-1.2,0.3-2.3,0.4-3.4c0.1-1.1,0.3-2.1,0.6-3.1c3-0.6,6.2-1.7,9.5-3.1
			c3.3-1.4,6.4-3.2,9.2-5.3c2.8-2.1,5.3-4.6,7.3-7.4c2-2.8,3.2-5.8,3.6-9.1c0.1-2.4-0.2-4.7-0.8-7c-0.7-2.3-1.7-4.3-3.1-6.1
			c-1.4-1.8-3.1-3.3-5.2-4.4c-2-1.1-4.4-1.7-7-1.7c-2.7,0-5.4,0.6-7.9,1.8c-2.5,1.2-4.9,2.9-7.1,5c-2.2,2.1-4.3,4.6-6.1,7.4
			c-1.8,2.8-3.5,5.8-4.8,9c-0.5,1.1-0.9,2.3-1.4,3.4c-2.6,4.6-5.6,8.9-9.2,13c-4.1,4.6-8.3,8.7-12.7,12.3c1.4-2.6,2.7-5.3,3.7-8.1
			c1.1-2.8,2-5.6,2.7-8.5c0.7-2.8,1.2-5.6,1.6-8.4c0.4-2.8,0.5-5.4,0.5-7.9c0-2.5-0.2-4.8-0.5-6.7c-0.4-1.9-0.9-3.7-1.6-5.5
			c-0.7-1.8-1.6-3.3-2.7-4.7c-1.1-1.4-2.4-2.4-4-3.2c-1.6-0.8-3.4-1.2-5.6-1.2c-0.7,0-1.3,0-2,0.1c-0.7,0.1-1.3,0.2-2,0.4
			c-2.3,0.6-4.5,1.6-6.6,3c-2.1,1.4-4,3-5.9,4.9c-1.9,1.9-3.6,4-5.2,6.3c-1.6,2.3-3,4.7-4.3,7.2c0.1-0.3,0.1-0.6,0.1-1.1
			c0-0.4,0-0.8,0-1.1c0.1-0.7,0.1-1.3,0.1-2c0-0.7,0-1.3,0-2c0-1.8-0.1-3.4-0.4-5c-0.3-1.6-0.8-2.9-1.6-4.1
			c-0.7-1.2-1.7-2.1-2.9-2.8c-1.2-0.7-2.7-1-4.6-1c-0.8,0-1.6,0.2-2.2,0.5c-0.7,0.4-1,1-1.1,2c-0.1,0.3-0.1,0.6,0,1
			c0,0.4,0.1,0.8,0.1,1.3c0.1,0.8,0.2,1.7,0.3,2.8c0.1,1,0,2.1-0.1,3.4c-0.1,1.4-0.4,3.4-0.8,5.9c-0.4,2.5-0.9,5.3-1.6,8.5
			c-0.2,1.1-0.5,2.3-0.7,3.5c-0.4,0.7-0.7,1.4-1,2.2c-1.2,2.2-2.5,4.6-4,7.2c-1.5,2.6-3,5.2-4.5,7.8c-1.6,2.6-3.2,5-4.8,7.3
			c-1.6,2.3-3.1,4.1-4.5,5.5c-0.8,0.7-1.4,0.9-1.7,0.6c-0.4-0.2-0.7-0.7-0.8-1.5c-0.1-0.8-0.2-1.7-0.1-2.9c0.1-1.2,0.1-2.3,0.3-3.4
			c0.1-1.1,0.3-2.2,0.4-3.1c0.1-0.9,0.3-1.6,0.3-2c0.3-1.9,0.7-3.9,1.3-6.1c0.6-2.2,0.8-4.2,0.6-6.1c-0.2-1.8-1-3.4-2.4-4.7
			c-1.4-1.3-3.8-2.1-7.3-2.4c-0.9,0.1-1.7,0.2-2.5,0.5c-0.8,0.3-1.1,0.8-1,1.6c0.1,1.1,0,2-0.4,2.9c-0.4,0.9-0.7,1.7-0.8,2.3
			c-1.1,2.2-2.5,4.7-4.2,7.7c-1.7,2.9-3.5,5.7-5.4,8.4c-1.9,2.7-3.9,4.9-6,6.8c-2,1.9-4,2.8-5.8,2.8c-1.1,0-1.9-0.3-2.5-0.8
			c-0.6-0.5-1-1.2-1.3-2c-0.3-0.8-0.5-1.7-0.5-2.6c0-0.9,0-1.8,0-2.7c0.1-1.7,0.6-4,1.4-6.7c0.8-2.8,1.9-5.8,3.2-8.9
			c1.3-3.2,2.9-6.3,4.6-9.5c1.7-3.2,3.6-6.1,5.5-8.7c2-2.6,4-4.7,6.1-6.3c2.1-1.6,4.2-2.4,6.3-2.4c1.6,0,3,0.4,4.1,1.3
			c1.1,0.9,2,1.9,2.8,3.2c0.7,1.3,1.2,2.8,1.5,4.4c0.3,1.6,0.4,3.2,0.3,4.7c-0.1,0.7-0.2,1.3-0.3,1.8c-0.1,0.6-0.3,1.2-0.5,1.8
			c0.5,0.7,1.2,1.1,1.9,1.1c0.2,0,0.6-0.1,1.2-0.3c0.6-0.2,0.9-0.4,1-0.5l0.1-0.1c0.5-1.5,0.9-3.1,1.1-4.8c0.2-2.5,0-5-0.7-7.4
			c-0.6-2.5-1.6-4.7-3-6.7c-1.4-2-3.1-3.6-5.1-4.8c-2-1.2-4.3-1.9-6.9-1.9c-3.4,0-6.6,0.8-9.8,2.4c-3.1,1.6-6.1,3.8-8.9,6.5
			c-2.8,2.7-5.4,5.8-7.8,9.3c-2.4,3.5-4.5,7.1-6.3,10.8c-1.8,3.7-3.3,7.3-4.4,11c-1.2,3.6-1.9,6.9-2.3,9.8c-0.1,0.4-0.1,0.9-0.1,1.3
			c0,0.5,0,0.9,0,1.2c0,2,0.2,3.9,0.6,5.8c0.4,1.8,1.1,3.4,2,4.8c0.9,1.4,2.2,2.5,3.8,3.3c1.6,0.8,3.6,1.2,5.9,1.2
			c2.5,0,4.9-0.6,7.3-1.8c2.4-1.2,4.6-2.8,6.8-4.7c2.2-2,4.2-4.2,6.1-6.7c1.9-2.5,3.7-5.1,5.3-7.8c-0.1,0.4-0.1,0.6-0.1,0.7
			c0,0,0,0.1,0,0.2c-0.2,1.5-0.3,3.3-0.3,5.6c0.1,2.2,0.4,4.4,0.9,6.5c0.6,2.1,1.4,3.9,2.6,5.4c1.2,1.5,2.8,2.3,5,2.3
			c1.6,0,3.2-0.3,4.9-1c1.7-0.6,3.1-1.5,4.3-2.5c1.4-1.1,2.8-2.6,4.3-4.5c1.5-1.9,3-3.9,4.4-6.2c1.5-2.2,2.9-4.6,4.4-7.1
			c0.8-1.4,1.6-2.9,2.4-4.3c-0.3,1.3-0.5,2.5-0.8,3.8c-0.9,4.4-1.8,9-2.8,13.8c-1,4.8-1.9,9.5-2.8,14.2c-0.9,4.6-1.6,8.9-2.3,13
			c-0.7,4.1-1.1,7.4-1.4,10.2c-0.1,0.9-0.2,1.8-0.2,2.8c0,1,0,1.9,0,2.8c0,2.5,0.2,5,0.5,7.5c0.4,2.5,1,4.7,1.8,6.6
			c0.9,2,2,3.5,3.3,4.7c1.4,1.2,3.1,1.8,5.2,1.8c0.5,0,0.9-0.1,1.2-0.3c0.4-0.2,0.6-0.6,0.7-1.2c0-0.4,0-0.6,0-0.8
			c0-0.2-0.1-0.5-0.1-0.9c-0.1-0.8-0.3-1.8-0.4-3.1c-0.1-1.3-0.2-2.8-0.2-4.6c0-0.7,0-1.5,0-2.2s0.1-1.6,0.2-2.5
			c0.3-3.2,0.6-6.1,1-8.8c0.4-2.7,0.8-5.3,1.3-7.9c0.5-2.5,1-5.1,1.5-7.7c0.5-2.6,1.1-5.5,1.8-8.6c0.4-1.7,0.8-3.6,1.2-5.7
			c0.4-2.1,0.8-4.2,1.3-6.5c1.7,1.8,3.7,3.1,6,4.1c2.3,0.9,4.6,1.4,6.8,1.4c2.3,0,4.7-0.4,7.1-1.1c2.4-0.7,4.8-1.6,7.2-2.7
			c2.3-1.1,4.6-2.3,6.7-3.7c2.1-1.4,4.1-2.7,5.9-4c3.1-2.4,6.1-5,8.9-7.8c2.8-2.8,5.4-5.6,7.7-8.5c0.7-0.8,1.4-1.7,2-2.5
			c-0.2,1.4-0.4,2.8-0.5,4.2v-0.1c-0.1,0.8-0.2,1.6-0.2,2.4c0,0.7,0,1.5,0,2.3c0,3.1,0.3,6,0.9,8.8c0.6,2.8,1.6,5.3,2.9,7.5
			c1.3,2.2,3.1,3.9,5.2,5.2c2.2,1.3,4.8,2,7.9,2c4.2,0,7.8-0.8,11.1-2.5c3.2-1.7,6.1-3.8,8.6-6.3c2.5-2.5,4.8-5.4,6.7-8.5
			c2-3.1,3.7-6.1,5.3-8.9c0.8-1.4,1.6-2.7,2.3-4c-0.1,1.1-0.3,2.1-0.3,3.1v-0.1c-0.1,0.8-0.2,1.6-0.2,2.4c0,0.8,0,1.6,0,2.4
			c0,2.5,0.2,5.1,0.7,7.5c0.4,2.5,1.2,4.7,2.3,6.7c1.1,2,2.6,3.6,4.4,4.8c1.9,1.2,4.3,1.9,7.2,1.9c2.2,0,4.3-0.6,6.4-1.7
			c2-1.1,4-2.6,5.9-4.6c1.9-1.9,3.7-4.2,5.4-6.7c0.7-1,1.3-2,2-3.1c0,0.2,0,0.4,0,0.6c0,2,0.2,3.9,0.6,5.8c0.4,1.8,1.1,3.4,2,4.8
			c0.9,1.4,2.2,2.5,3.8,3.3c1.6,0.8,3.6,1.2,5.9,1.2c2.5,0,4.9-0.6,7.3-1.8c2.4-1.2,4.6-2.8,6.8-4.7c2.2-2,4.2-4.2,6.1-6.7
			c1.9-2.5,3.7-5.1,5.3-7.8c-0.1,0.4-0.1,0.6-0.1,0.7c0,0,0,0.1,0,0.2c-0.2,1.5-0.3,3.3-0.3,5.6c0.1,2.2,0.4,4.4,0.9,6.5
			c0.6,2.1,1.4,3.9,2.6,5.4c1.2,1.5,2.8,2.3,5,2.3c1.6,0,3.2-0.3,4.9-1c1.7-0.6,3.1-1.5,4.3-2.5c1.4-1.1,2.8-2.6,4.3-4.5
			c1.5-1.9,3-3.9,4.4-6.2c1.5-2.2,2.9-4.6,4.4-7.1c1.5-2.5,2.8-4.9,4.1-7.4c1.2-2.3,2.3-4.5,3.4-6.6c0.1,0,0.2,0,0.3,0.1l6.1-12.5
			c0.5,0.1,1,0.1,1.7,0.1c0.7,0,1.2,0,1.7,0c0.4,0.1,0.8,0.1,1.3,0.1s0.9,0,1.5,0c-0.5,1.2-1,2.5-1.5,3.7c-0.4,1.2-0.9,2.4-1.4,3.7
			c-1.2,3.1-2.6,6.5-4,10.1c-1.4,3.6-2.8,7.5-4.2,11.7c-1.4,4.2-2.7,8.6-3.9,13.4c-1.2,4.7-2.3,9.8-3.3,15.3
			c-6.3-2.9-13.2-5-20.6-6.2c-7.5-1.2-15.3-1.9-23.5-1.9c-2.7,0-5.4,0-8.3,0.1c-2.9,0.1-5.7,0.3-8.6,0.6c-5.3,0.5-10.7,1.3-16.1,2.2
			c-5.4,0.9-10.7,2.1-15.7,3.5c-5.1,1.4-9.8,3.1-14.3,5.1s-8.4,4.2-11.8,6.7c-2,1.6-3.8,3.4-5.7,5.4c-1.8,2-3.4,4.1-4.8,6.3
			c-1.4,2.2-2.4,4.5-3.2,6.9c-0.8,2.4-1.2,4.8-1.2,7.2c0,2.2,0.3,4.2,0.9,6c0.5,1.7,1.1,3.1,1.9,4.4c0.8,1.3,1.8,2,3,2
			c1.1-0.1,1.9-0.7,2.4-1.7c0.5-1,0.9-1.9,1.2-2.8c0.1-0.2,0.1-0.4,0.2-0.6c0.1-0.2,0.2-0.4,0.2-0.5c2.5-5.3,6-10.1,10.5-14.2
			c4.5-4.1,9.6-7.7,15.4-10.7c5.8-3,12.1-5.5,18.8-7.5c6.8-2,13.7-3.5,20.7-4.6c5.1-0.8,10-1.3,14.8-1.7c4.8-0.4,9.4-0.6,13.8-0.6
			c10.7,0,20.3,1.2,28.7,3.7c0.1,4.2,0.7,7.9,2,11c1.2,3.1,2.9,5.7,5,7.8c2.1,2.1,4.5,3.6,7.2,4.6c2.7,1,5.7,1.5,8.8,1.5
			c0.9,0,1.8,0,2.8-0.1c1-0.1,1.9-0.2,2.8-0.3c3.6-0.8,6.8-2,9.6-3.5c2.8-1.5,5.1-3.2,6.9-5.1c1.9-1.9,3.3-3.9,4.2-6
			c0.9-2.1,1.4-4.2,1.4-6.2c0-2-0.3-3.8-1-5.5S895.6,815.5,894.4,814.1z M766.8,737.4c1.8-5.1,3.5-9.6,5.2-13.4
			c1.7-3.8,3.3-6.7,4.8-8.9c1.5-2.2,2.7-3.2,3.6-3.2c0.4,0,0.8,0.3,1.1,0.8c0.3,0.5,0.5,1.1,0.7,1.9c0.1,0.8,0.2,1.6,0.2,2.4
			c0,0.9,0,1.7-0.1,2.4c-0.3,3.4-1.3,6.9-3,10.5c-1.7,3.6-3.7,7.1-5.9,10.3c-2.2,3.2-4.4,6.1-6.5,8.6c-2.2,2.5-3.9,4.3-5.1,5.3
			C763.4,748.2,765.1,742.6,766.8,737.4z M714.6,768.2c0.8-1.9,1.7-3.9,2.8-6.1c1-2.1,2.2-4.3,3.5-6.4c1.3-2.1,2.6-4.1,4-5.8
			c1.3-1.7,2.7-3.1,4-4.2c1.3-1.1,2.6-1.6,3.7-1.6c1.2,0,2.3,0.9,3.2,2.6c1.1,2.3,1.6,4.6,1.3,6.7c-0.2,2.7-1.2,5.1-3,7.4
			c-1.8,2.2-3.9,4.2-6.4,5.9c-2.5,1.7-5,3.1-7.7,4.2c-2.7,1.1-5,1.7-7,2C713.2,771.7,713.8,770.1,714.6,768.2z M667.6,760.6
			c-0.4,2.9-0.9,5.9-1.6,9c-0.7,3.1-1.5,6.1-2.6,9.2c-1,3-2.2,5.8-3.6,8.3c-1.3,2.5-2.8,4.6-4.5,6.3c-1.7,1.7-3.5,2.8-5.5,3.2
			c-1.2,0.3-2.5,0.3-3.6,0.1c-1.2-0.2-2.3-0.6-3.4-1.2s-2-1.3-2.9-2.1c-0.9-0.9-1.6-1.8-2.2-2.8c0.7-3.1,1.3-6.2,1.9-9.1
			c0.6-3,1.2-5.9,1.7-8.7c0.5-1.5,1.1-3.3,1.9-5.4c0.8-2,1.7-4.2,2.7-6.3c1-2.2,2.1-4.4,3.2-6.5c1.2-2.2,2.4-4.1,3.8-5.9
			c1.3-1.8,2.7-3.3,4.1-4.5c1.4-1.2,2.8-2,4.2-2.3c1.1-0.2,2.1-0.2,2.8,0.1c0.8,0.3,1.4,0.8,2,1.5c0.5,0.7,0.9,1.5,1.2,2.4
			c0.3,0.9,0.5,1.8,0.6,2.6c0.1,0.6,0.2,1.2,0.3,2c0.1,0.7,0.1,1.5,0.1,2.3C668.2,755.1,668,757.7,667.6,760.6z M861.8,742.3
			c-0.5,1.5-1.1,2.8-1.6,3.9c-0.5,1.2-0.9,2-1.1,2.6c-1.1-0.3-1.9-0.8-2.3-1.6c-0.4-0.7-0.5-1.7-0.4-2.8c0.1-1.2,0.5-2.6,1.1-4
			c0.6-1.4,1.3-2.8,2-4c0.7-1.2,1.5-2.3,2.3-3.1c0.8-0.8,1.4-1.2,1.9-1.2c0.3,0,0.4,0.6,0.4,1.9c-0.1,1.1-0.4,2.4-0.8,3.9
			C862.8,739.4,862.3,740.8,861.8,742.3z M887.3,828.5c-0.7,1.8-1.6,3.4-2.9,5c-1.3,1.6-2.9,2.9-4.8,4c-1.9,1.1-4.1,1.8-6.7,2.1
			c-2,0.3-3.7,0.1-5.2-0.7c-1.4-0.8-2.6-1.8-3.6-3.2c-1-1.4-1.7-3-2.2-4.7c-0.5-1.7-0.8-3.5-1-5.3c2.8,1.7,4.9,3.3,6.2,4.9
			c1.3,1.6,2.2,3.1,2.6,4.3v0.1c0.2,0.5,0.4,0.9,0.8,1.2c0.3,0.3,0.8,0.3,1.4,0.1c0.6-0.4,1-0.7,1.2-1s0.1-0.8-0.2-1.5l0.1,0.1
			c-0.8-1.9-1.2-3.7-1.2-5.5c0-1.4,0.2-2.8,0.6-4.1c0.4-1.3,1-2.5,1.7-3.5c0.7-1,1.5-1.9,2.4-2.7c0.9-0.7,1.9-1.3,2.9-1.6
			c0.5-0.2,1.1-0.3,1.6-0.4c0.5-0.1,0.9-0.1,1.3-0.1c2.1,0,3.6,0.7,4.5,2.1c0.9,1.4,1.4,3.1,1.4,5.1
			C888.3,825,887.9,826.7,887.3,828.5z"/>
		<path class="st16" d="M900.4,733.8c1.7,0,3.3-0.5,4.8-1.6c1.5-1.1,2.4-2.6,2.6-4.7c0.1-0.8,0-1.7-0.3-2.7c-0.3-1-0.7-2.1-1.4-3.2
			c-0.7-1.1-1.5-1.8-2.3-2.3c-0.8-0.5-1.6-0.7-2.4-0.7c-0.8,0-1.6,0.2-2.4,0.7c-0.7,0.5-1.4,1.1-1.9,1.9c-0.5,0.8-1,1.6-1.3,2.6
			c-0.4,1-0.6,1.9-0.6,2.9c-0.1,2.5,0.4,4.3,1.4,5.5S898.9,733.8,900.4,733.8z"/>
		<path class="st16" d="M987.3,758.3c-0.3-0.3-0.8-0.5-1.3-0.5c-0.5,0-0.9,0.1-1.3,0.3c-0.5,0.8-1.1,1.9-1.7,3.1
			c-0.7,1.3-1.3,2.6-2,4c-1.2,2.2-2.5,4.6-4,7.2c-1.5,2.6-3,5.2-4.5,7.8s-3.2,5-4.8,7.3c-1.6,2.3-3.1,4.1-4.5,5.5
			c-0.8,0.7-1.3,0.9-1.7,0.6c-0.4-0.2-0.7-0.7-0.8-1.5c-0.1-0.8-0.2-1.7-0.1-2.9s0.1-2.3,0.3-3.4c0.1-1.1,0.3-2.2,0.4-3.1
			c0.1-0.9,0.3-1.6,0.3-2c0.3-1.9,0.7-3.9,1.3-6.1c0.6-2.2,0.8-4.2,0.6-6.1c-0.2-1.8-1-3.4-2.4-4.7c-1.4-1.3-3.8-2.1-7.3-2.4
			c-0.9,0.1-1.7,0.2-2.5,0.5c-0.8,0.3-1.1,0.8-1,1.6c0.1,1.1,0,2-0.4,2.9c-0.4,0.9-0.7,1.7-0.8,2.3c-1.1,2.2-2.5,4.7-4.2,7.7
			c-1.7,2.9-3.5,5.7-5.4,8.4c-1.9,2.7-3.9,4.9-6,6.8c-2,1.9-4,2.8-5.8,2.8c-1.1,0-1.9-0.3-2.5-0.8c-0.6-0.5-1-1.2-1.3-2
			c-0.3-0.8-0.5-1.7-0.5-2.6c0-0.9,0-1.8,0-2.7c0.1-1.7,0.6-4,1.4-6.7c0.8-2.8,1.9-5.8,3.2-8.9c1.3-3.2,2.9-6.3,4.6-9.5
			c1.7-3.2,3.6-6.1,5.5-8.7c2-2.6,4-4.7,6.1-6.3s4.2-2.4,6.3-2.4c1.6,0,3,0.4,4.1,1.3c1.1,0.9,2,1.9,2.8,3.2
			c0.7,1.3,1.2,2.8,1.5,4.4c0.3,1.6,0.4,3.2,0.3,4.7c-0.1,0.7-0.2,1.3-0.3,1.8c-0.1,0.6-0.3,1.2-0.5,1.8c0.5,0.7,1.2,1.1,1.9,1.1
			c0.2,0,0.6-0.1,1.2-0.3c0.6-0.2,0.9-0.4,1-0.5l0.1-0.1c0.5-1.5,0.9-3.1,1.1-4.8c0.2-2.5,0-5-0.7-7.4c-0.6-2.5-1.6-4.7-3-6.7
			c-1.4-2-3.1-3.6-5.1-4.8c-2-1.2-4.3-1.9-6.9-1.9c-3.4,0-6.6,0.8-9.8,2.4c-3.1,1.6-6.1,3.8-8.9,6.5c-2.8,2.7-5.4,5.8-7.8,9.3
			c-2.4,3.5-4.5,7.1-6.3,10.8c-1.7,3.4-3,6.8-4.2,10.1c-0.5,1-1,1.9-1.6,2.9c-1.3,2.3-2.6,4.5-3.9,6.6c-1.3,2.1-2.6,4-3.8,5.6
			c-1.2,1.7-2.4,3-3.5,4c-1.1,1-2.1,1.5-2.9,1.5c-1-0.1-1.7-0.7-2.1-2c-0.4-1.3-0.6-2.9-0.6-5c0-0.5,0-1,0-1.7
			c0-0.7,0.1-1.3,0.1-1.9c0.3-2.5,0.7-5.2,1.3-8.2c0.6-3,1.2-5.9,1.9-8.9c0.7-3,1.4-5.8,2.2-8.5c0.7-2.7,1.4-5,2-6.9
			c0.4-1.2,0.6-2.3,0.8-3.3c0.2-1,0.3-1.9,0.3-2.7c0-1.7-0.6-3.1-1.7-4.2c-1.1-1.1-2.9-2-5.4-2.9c-0.8-0.2-1.6-0.3-2.3-0.1
			c-0.7,0.1-1.2,0.6-1.4,1.4c-0.1,0.5-0.2,1-0.2,1.7c0,0.7-0.1,1.5-0.3,2.5v-0.1l-1.2,4.1c-1.8,5.6-3.5,11.2-5.1,16.8
			c-1.5,5.6-2.5,11.3-3,17.1c-0.1,0.7-0.1,1.4-0.1,2.2c0,0.7,0,1.5,0,2.2c0,2.2,0.2,4.3,0.5,6.3c0.4,1.9,1,3.6,1.8,5.1
			c0.9,1.5,2,2.6,3.4,3.4c1.4,0.8,3.1,1.2,5.2,1.2c1.7,0,3.5-0.7,5.4-2c1.9-1.4,3.8-3.2,5.7-5.4c1.9-2.2,3.8-4.8,5.7-7.7
			c0.1-0.1,0.1-0.2,0.2-0.3c0,0.3,0,0.6,0,0.8c0,2,0.2,3.9,0.6,5.8c0.4,1.8,1.1,3.4,2,4.8c0.9,1.4,2.2,2.5,3.8,3.3
			c1.6,0.8,3.6,1.2,5.9,1.2c2.5,0,4.9-0.6,7.3-1.8c2.4-1.2,4.6-2.8,6.8-4.7c2.2-2,4.2-4.2,6.1-6.7s3.7-5.1,5.3-7.8
			c-0.1,0.4-0.1,0.6-0.1,0.7c0,0,0,0.1,0,0.2c-0.2,1.5-0.3,3.3-0.3,5.6c0.1,2.2,0.4,4.4,0.9,6.5c0.6,2.1,1.4,3.9,2.6,5.4
			c1.2,1.5,2.8,2.3,5,2.3c1.6,0,3.2-0.3,4.9-1c1.7-0.6,3.1-1.5,4.3-2.5c1.4-1.1,2.8-2.6,4.3-4.5c1.5-1.9,3-3.9,4.4-6.2
			s2.9-4.6,4.4-7.1c1.5-2.5,2.8-4.9,4.1-7.4c1.3-2.4,2.5-4.7,3.6-6.9c1.1-2.2,2.1-4.1,2.9-5.8l0.9-2
			C987.9,759,987.7,758.6,987.3,758.3z"/>
	</g>
	<g id="pencil_00000031203591198391453890000015079672993539309190_">
		<path class="st16" d="M367.1,811.4c1.3-0.9,2.6-1.7,3.9-2.6c0.1,0,0.1-0.1,0-0.2L304,709c0-0.1,0-0.1,0-0.2l5.9-4
			c0.1,0,0.1,0,0.2,0l66.9,99.6c0,0.1,0.1,0.1,0.2,0c1.3-0.9,2.7-1.8,4-2.7c0.1,0,0.1-0.1,0-0.2l-67-99.7c0-0.1,0-0.1,0-0.2l5.9-4
			c0.1,0,0.1,0,0.2,0l67,99.7c0,0.1,0.1,0.1,0.2,0c1.3-0.9,2.6-1.7,3.9-2.6c0.1,0,0.1-0.1,0-0.2l-67-99.7c0-0.1,0-0.1,0-0.2l5.6-3.8
			c0.1,0,0.1,0,0.2,0l67.1,99.8l-0.1,0c2.5,16.7,5.1,33.4,7.6,50.1c0,0.1-0.1,0.2-0.2,0.1c-14.4-8.6-29-17.4-43.4-26c0,0,0,0,0,0
			l-67-99.8c0-0.1,0-0.1,0-0.2l5.6-3.8c0.1,0,0.1,0,0.2,0l67,99.7C367,811.4,367,811.4,367.1,811.4z M376.6,820.4
			c5.3,3.1,10.5,6.1,15.8,9.2c3.2-2.3,3.7-2.6,6.9-4.8c-1-5.9-2.1-11.8-3.1-17.7c-5.8,0.2-4.1,0.1-10,0.3c-0.2,1.9-0.4,3.8-0.6,5.7
			c0,0.1-0.1,0.1-0.1,0.1c-1.7-0.5-3.4-1.1-5-1.6C378.2,816.9,379,815.1,376.6,820.4z"/>
		<path class="st16" d="M284.3,688.3l24.7-16.6c2.9-2,6.9-1.2,8.9,1.7l6.1,9.2c0,0.1,0,0.1,0,0.2l-35.8,24.1c-0.1,0-0.1,0-0.2,0
			l-5.7-8.5C280.1,695,281,690.5,284.3,688.3z"/>
	</g>
	<g id="pencil_00000042013824106935238750000016130923949225275570_">
		<path class="st16" d="M1078.9,805.3c-1.3-0.9-2.6-1.7-3.9-2.6c-0.1,0-0.1-0.1,0-0.2l66.9-99.6c0-0.1,0-0.1,0-0.2l-5.9-4
			c-0.1,0-0.1,0-0.2,0l-66.9,99.6c0,0.1-0.1,0.1-0.2,0c-1.3-0.9-2.7-1.8-4-2.7c-0.1,0-0.1-0.1,0-0.2l67-99.7c0-0.1,0-0.1,0-0.2
			l-5.9-4c-0.1,0-0.1,0-0.2,0l-67,99.7c0,0.1-0.1,0.1-0.2,0c-1.3-0.9-2.6-1.7-3.9-2.6c-0.1,0-0.1-0.1,0-0.2l67-99.7
			c0-0.1,0-0.1,0-0.2l-5.6-3.8c-0.1,0-0.1,0-0.2,0l-67.1,99.8l0.1,0c-2.5,16.7-5.1,33.4-7.6,50.1c0,0.1,0.1,0.2,0.2,0.1
			c14.4-8.6,29-17.4,43.4-26c0,0,0,0,0,0l67-99.8c0-0.1,0-0.1,0-0.2l-5.6-3.8c-0.1,0-0.1,0-0.2,0l-67,99.7
			C1079,805.3,1078.9,805.3,1078.9,805.3z M1069.3,814.4c-5.3,3.1-10.5,6.1-15.8,9.2c-3.2-2.3-3.7-2.6-6.9-4.8
			c1-5.9,2.1-11.8,3.1-17.7c5.8,0.2,4.1,0.1,10,0.3c0.2,1.9,0.4,3.8,0.6,5.7c0,0.1,0.1,0.1,0.1,0.1c1.7-0.5,3.4-1.1,5-1.6
			C1067.8,810.9,1067,809.1,1069.3,814.4z"/>
		<path class="st16" d="M1161.6,682.2l-24.7-16.6c-2.9-2-6.9-1.2-8.9,1.7l-6.1,9.2c0,0.1,0,0.1,0,0.2l35.8,24.1c0.1,0,0.1,0,0.2,0
			l5.7-8.5C1165.8,688.9,1164.9,684.5,1161.6,682.2z"/>
	</g>
</g>
<g id="others">
	<g>
		<g>
			<path class="st17" d="M1269.1,396.2c-8.2,15.2-21.3,28-37.5,34.5c-22.5,8.9-49.1,8.3-71.4-1c-7.7-3.3-19.2-10.8-13.6-20.6
				c4.5-8,12.6-13.1,21-16.1c6.8-2.4,15.4-2.8,21.4,2.2c1.5,1.2,2.8,2.5,3.9,4c12.3,16.9,10.5,48.5,1.2,66.5
				c-6.3,12.6-16.5,22.9-28,30.8c-5.8,3.9-11.9,7.2-18.3,9.9l-0.2-0.4c36.1-18.8,56.5-49.7,47.8-91c-5-21-17.7-25.1-35.9-14.5
				c-5,3.3-11.2,8.1-11.6,14.4c0.1,3,2.4,5.6,4.7,7.4c12.8,9.8,32.4,12.9,48.3,12.8c13.6-0.2,27.4-3.1,39.3-9.9
				c11.9-6.8,21.6-17.1,28.4-29L1269.1,396.2L1269.1,396.2z"/>
		</g>
	</g>
	<g>
		<g>
			<path class="st18" d="M1268.9,396.1c-4.4,7.8-14.6,23.4-33.9,32.4c-36.6,17.1-86.3,1.6-88.3-12.9c-1.4-10.6,22-26.5,36.3-21.7
				c16.2,5.4,19.6,37.2,14.1,58.7c-0.9,3.6-2.1,7-3.5,10.2c-1.5,3.4-3.3,6.7-5.2,9.6c-1.7,2.6-3.5,5.1-5.4,7.3
				c-12.9,15.6-29.7,23.8-35.1,26.3"/>
			<path class="st18" d="M1269.1,396.2c-8.2,15.2-21.3,28-37.5,34.5c-22.5,8.9-49.1,8.3-71.4-1c-7.7-3.3-19.2-10.8-13.6-20.6
				c4.5-8,12.6-13.1,21-16.1c6.8-2.4,15.4-2.8,21.4,2.2c1.5,1.2,2.8,2.5,3.9,4c12.3,16.9,10.5,48.5,1.2,66.5
				c-6.3,12.6-16.5,22.9-28,30.8c-5.8,3.9-11.9,7.2-18.3,9.9l-0.2-0.4c36.1-18.8,56.5-49.7,47.8-91c-5-21-17.7-25.1-35.9-14.5
				c-5,3.3-11.2,8.1-11.6,14.4c0.1,3,2.4,5.6,4.7,7.4c12.8,9.8,32.4,12.9,48.3,12.8c13.6-0.2,27.4-3.1,39.3-9.9
				c11.9-6.8,21.6-17.1,28.4-29L1269.1,396.2L1269.1,396.2z"/>
		</g>
	</g>
</g>
<g id="tipo">
	<g>
		
			<linearGradient id="SVGID_00000100371965058533545150000001863112180096101009_" gradientUnits="userSpaceOnUse" x1="240.5081" y1="351.9316" x2="598.0634" y2="351.9316">
			<stop  offset="0" style="stop-color:#AA0009"/>
			<stop  offset="1" style="stop-color:#D40005"/>
		</linearGradient>
		<path style="fill:url(#SVGID_00000100371965058533545150000001863112180096101009_);" d="M269.2,459.7c2.7,0,3.6,2.2,2.6,6.5
			l-2.1,4.1c-1,1.6-1.9,3.3-2.6,5.3c-0.8,2-1.2,4.3-1.2,7c0,3.7,1,8.5,2.9,14.4c2.9,11.1,7.7,20.8,14.2,28.9
			c6.6,8.1,14.3,14.8,23.3,20.1c9,5.3,19,9.2,29.9,11.7c11,2.5,22.3,3.8,34,3.8c10.8,0,21.8-1,33-3.1c11.2-2.1,21.9-4.7,31.8-8.1
			c4.9-2,10.2-4.4,16-7.2c5.8-2.8,11.5-6,17.3-9.4c5.8-3.4,11.4-7.2,16.9-11.3c5.5-4.1,10.3-8.4,14.4-12.9c4.1-4.5,7.4-9.2,10-14.1
			c2.5-4.9,3.8-9.9,3.8-15c0-4.7-0.7-8.9-2.1-12.6c-2.9-6.1-8-11.1-15.1-15.3c-7.1-4.1-15.1-7.4-23.9-10c-8.2-2-17.4-3.9-27.4-5.7
			c-10.1-1.9-19.3-3.6-27.7-5.1l-7.6-1.2c-15.8-2.5-31.6-5.6-47.4-9.1c-15.7-3.5-30.4-8.3-44-14.2c-13.6-6-25.6-13.7-35.9-23.3
			c-10.4-9.6-18.1-21.7-23.2-36.4c-1.6-5.7-3-11.9-4.4-18.6c-1.4-6.7-2.1-13.2-2.1-19.2c0-10.8,1.4-22.9,4.3-36.4
			c2.8-13.5,7-27.9,12.5-43.1c6.5-18,15-35.2,25.7-51.5c10.7-16.3,22.6-31,35.9-44c13.3-13,27.7-23.9,43.3-32.6
			c15.5-8.7,31.5-14.4,48-17.2H422c5.5-1.6,10.5-2.6,15.1-3.1c4.6-0.5,9-0.7,13.3-0.7c12.7,0,25.2,2.2,37.6,6.5
			C500.4,92,512,98,523,105.5c11,7.5,21,16.5,30.2,26.8c9.2,10.4,17.1,21.6,23.8,33.6c6.6,12,11.8,24.7,15.5,38
			c3.7,13.3,5.6,26.7,5.6,40.2c0,2.5-0.1,5.3-0.1,8.4c-0.1,3-0.3,5.9-0.7,8.7c-2.2,13.5-6.7,26-13.8,37.6
			c-7,11.5-15.5,21.6-25.2,30.2c-9.8,8.6-20.4,15.4-31.8,20.2c-11.4,4.9-22.6,7.3-33.6,7.3c-11.7,0-22.5-3.5-32.3-10.4
			c-9.8-6.9-17.1-17.4-22-31.2c-1-2.7-1.3-5.4-1-7.9c0.3-2.5,1.4-4.6,3.4-6.2c2.5-1.8,4.8-1.5,6.9,0.7c2.1,2.3,3.9,5,5.4,8.4
			c3.9,9.4,8.9,16.3,15.1,20.7c6.2,4.4,12.5,6.6,18.9,6.6c6.6,0,13.2-2.1,19.7-6.2c6.5-4.1,12.2-9.8,17.3-17.2
			c5.1-7.3,9.2-16,12.5-26.1c3.2-10.1,4.8-21.2,4.8-33.3h0.3c-0.6-11.1-2.5-22.5-5.7-34c-3.2-11.5-7.5-22.6-12.9-33.3
			c-5.4-10.7-11.7-20.7-18.9-30.2c-7.2-9.5-15.1-17.7-23.6-24.8c-8.5-7-17.5-12.6-27-16.7c-9.5-4.1-19.1-6.2-28.9-6.2
			c-16.2-0.2-30.3,3.5-42.1,11.1c-11.8,7.6-21.6,17.7-29.3,30.2c-7.7,12.5-13.5,26.8-17.5,42.8c-3.9,16-6.1,32.3-6.5,48.7
			c-0.2,2.5-0.3,5-0.4,7.5c-0.1,2.4-0.1,4.9-0.1,7.5c0,11.5,0.8,22.1,2.5,31.7c1.7,9.6,4.3,18.6,8.1,27c4.1,10.4,9.7,19.3,16.7,26.7
			c7,7.4,14.9,13.9,23.6,19.4c8.7,5.5,17.9,10.2,27.6,14.1c9.7,3.9,19.1,7.5,28.3,10.9l6.5,2.3c6.1,2.2,12.1,4.4,18,6.7
			c6,2.3,11.5,4.9,16.6,7.6c11.7,5.7,22.6,13.3,32.6,22.9c10,9.6,17.2,21.3,21.7,35.2c2.9,9.8,4.4,19.6,4.4,29.3
			c0,12.9-2.4,25.4-7.3,37.6c-4.9,12.1-11.4,23.4-19.7,33.7c-8.2,10.4-17.9,19.7-28.9,28c-11.1,8.3-22.7,15.2-35.1,20.7
			c-19,7.8-39.4,11.7-61.3,11.7c-12.1,0-24.2-1.3-36.1-3.8c-11.9-2.5-23.3-6.2-34-10.9c-10.8-4.7-20.7-10.4-29.9-17
			c-9.2-6.7-17-14.1-23.5-22.4c-6.5-8.3-11.4-17.3-14.8-26.8c-3.4-9.6-4.7-19.8-4-30.5c0.4-3.7,1.3-8.5,2.6-14.4
			c1.4-5.9,3.2-11.5,5.6-17c2.3-5.5,5.2-10.2,8.5-14.1C260.8,461.7,264.7,459.7,269.2,459.7z"/>
	</g>
	<g>
		
			<linearGradient id="SVGID_00000033342855876173899260000004889037020289186192_" gradientUnits="userSpaceOnUse" x1="598.473" y1="364.6916" x2="1146.5902" y2="364.6916">
			<stop  offset="0" style="stop-color:#AA0009"/>
			<stop  offset="1" style="stop-color:#D40005"/>
		</linearGradient>
		<path style="fill:url(#SVGID_00000033342855876173899260000004889037020289186192_);" d="M1146.5,509c0.3,5.2-1.1,11.7-4.4,19.5
			c-3.3,7.8-7.9,15.5-13.9,23.2c-6,7.6-13.2,14.8-21.5,21.5c-8.3,6.7-17.3,11.5-27.1,14.4c-9.8,2.9-19.9,3.6-30.5,2
			c-10.6-1.6-21.1-6.8-31.5-15.6c-14.6-12.4-25.7-29.1-33.2-50.3c-7.5-21.1-11.7-45.7-12.7-73.7c-1-20.5-0.2-41.1,2.4-62
			c2.6-20.8,6.3-41.1,11.2-60.8c4.9-19.7,10.6-38.5,17.1-56.4c6.5-17.9,13.3-34.2,20.5-48.8c-19.5,24.1-39.6,53.1-60.3,87.1
			c-20.7,34-38.3,72.6-52.9,115.9c-1,2.9-2.5,7.6-4.6,13.9c-2.1,6.3-4.5,12.8-7.1,19.3c-2.6,6.5-5.1,12.6-7.6,18.3
			c-2.4,5.7-4.5,9.5-6.1,11.5c-4.9,5.9-10.6,11.2-17.1,16.1c-6.5,4.9-13.4,8.4-20.7,10.5c-7.3,2.1-15,2.4-22.9,0.7
			c-8-1.6-15.7-6-23.2-13.2c-6.8-6.2-12.3-15-16.3-26.6c-4.1-11.5-7-24.7-8.8-39.5c-1.8-14.8-2.4-30.7-2-47.8
			c0.5-17.1,1.9-34.4,4.1-52c-6.5,24.4-11.6,50.6-15.1,78.6c-3.6,28-4.7,57.4-3.4,88.3c0.3,1.6-0.2,3.6-1.5,5.9
			c-1.3,2.3-3.9,3.7-7.8,4.4c-3.6,1-7.8,1.3-12.7,1c-4.9-0.3-9.8-1.5-14.6-3.4c-4.9-2-9.7-4.8-14.4-8.5c-4.7-3.7-8.7-8.5-12-14.4
			c-4.2-7.8-6.1-18.3-5.6-31.5c0.5-13.2,2.8-27.9,6.8-44.2c4.1-16.3,9.6-33.6,16.6-52c7-18.4,14.9-36.6,23.7-54.7
			c8.8-18.1,18.2-35.4,28.3-52c10.1-16.6,20.2-31.4,30.3-44.4c-12.4,6.5-25.5,14.1-39.5,22.7c-14,8.6-28.1,18.6-42.5,30
			c-14.3,11.4-28.4,24.2-42.2,38.3c-13.8,14.2-26.8,29.9-38.8,47.1c-1,1-2.4,2-4.1,2.9c-1.8,1-4.3,0.7-7.6-1
			c-5.9-2.6-11.5-7.8-16.8-15.6c-5.4-7.8-7.2-17.4-5.6-28.8c1.3-8.5,6.5-17.6,15.6-27.3c9.1-9.8,20.5-19.7,34.2-29.8
			c13.7-10.1,29-19.8,46.1-29.3c17.1-9.4,34.3-17.9,51.7-25.4c17.4-7.5,34.2-13.6,50.3-18.3c16.1-4.7,30.3-7.6,42.7-8.5
			c7.5-0.6,12.5,0,15.1,2c2.6,2,4.1,4.4,4.4,7.3c0,1.3-1.1,5.4-3.4,12.2c-2.3,6.8-5.2,15.7-8.8,26.6c-3.6,10.9-7.3,23.3-11.2,37.3
			c-3.9,14-7.2,28.6-10,43.9c-2.8,15.3-4.6,30.9-5.6,46.8c-1,15.9-0.3,31.2,2,45.9c1.6,10.4,4.1,20.1,7.3,29
			c3.2,9,7.6,16.7,13.2,23.2c2.6-14.3,7.6-30.5,15.1-48.6c7.5-18.1,16.6-36.8,27.3-56.1c10.7-19.4,22.8-38.6,36.4-57.8
			c13.5-19.2,27.4-37.2,41.7-53.9c14.3-16.8,28.7-31.7,43.2-44.9c14.5-13.2,28.2-23.3,41.2-30.5c10.4-5.5,18.5-8.7,24.2-9.5
			c5.7-0.8,10-0.4,12.9,1.2c3.6,1.6,5.7,4.6,6.3,8.8l-0.5,1c0,5.9-0.8,12-2.4,18.5c-1,3.6-2,7-2.9,10.2
			c-10.4,26.4-19.2,53.5-26.4,81.5c-2.9,12-5.7,24.8-8.3,38.3c-2.6,13.5-4.6,27.4-6.1,41.7c-1.5,14.3-2.2,28.9-2.2,43.7
			c0,14.8,1.1,29.2,3.4,43.2c2.6,15.9,6.5,30.4,11.7,43.4c5.2,13,13,23.6,23.4,31.7c7.5,6.2,16,10.2,25.6,12.2
			c9.6,2,19.8-0.7,30.5-7.8c2.9-2.3,5.2-2.8,6.8-1.5C1145.2,506.9,1146.2,508,1146.5,509z"/>
	</g>
</g>
<g id="paper_plane_00000149364503250976297120000015263095514499952802_">
	
		<linearGradient id="SVGID_00000040562361465811248060000001014206487766144185_" gradientUnits="userSpaceOnUse" x1="1235.413" y1="319.2719" x2="1493.7882" y2="319.2719" gradientTransform="matrix(0.9615 2.632174e-02 -2.621809e-02 0.9577 55.6646 -6.2719)">
		<stop  offset="0" style="stop-color:#AA0009"/>
		<stop  offset="1" style="stop-color:#D40005;stop-opacity:0.1"/>
	</linearGradient>
	<path style="fill:url(#SVGID_00000040562361465811248060000001014206487766144185_);" d="M1278,394.7c17.9-6.5,39.4-13.1,57.3-19.6
		c10.3,8.8,20.6,17.6,30.9,26.3c39.7-42.8,79.4-85.5,119.1-128.3c-82.4,6.6-166.7,13.4-249.2,20c16.2,13.6,32.4,27.2,48.6,40.8
		C1283.7,354.1,1279,374.4,1278,394.7z"/>
	<g id="paper_plane_00000065787710638989939470000004242979633864238778_">
		<polygon class="st22" points="1274.4,389.1 1311.2,344.6 1336.7,364.5 		"/>
		<path class="st23" d="M1231.4,284.1c85.2-9.1,173.6-19.3,258.8-28.4c-40.4,45-80.8,90-121.2,135
			C1324.1,354.8,1276.1,320,1231.4,284.1z"/>
		<path class="st24" d="M1274.4,389.1c2.4-22,4.7-44,7.1-66c66.3-20.8,132.7-41.5,199-62.3c-56.6,28.2-113.1,56.3-169.7,84.5
			C1298.7,359.9,1286.5,374.5,1274.4,389.1z"/>
	</g>
</g>
</svg>
